<svg xmlns="http://www.w3.org/2000/svg" width="22" height="22" viewBox="0 0 22 22">
  <metadata><?xpacket begin="﻿" id="W5M0MpCehiHzreSzNTczkc9d"?>
<x:xmpmeta xmlns:x="adobe:ns:meta/" x:xmptk="Adobe XMP Core 5.6-c138 79.159824, 2016/09/14-01:09:01        ">
   <rdf:RDF xmlns:rdf="http://www.w3.org/1999/02/22-rdf-syntax-ns#">
      <rdf:Description rdf:about=""/>
   </rdf:RDF>
</x:xmpmeta>
                                                                                                    
                                                                                                    
                                                                                                    
                                                                                                    
                                                                                                    
                                                                                                    
                                                                                                    
                                                                                                    
                                                                                                    
                                                                                                    
                                                                                                    
                                                                                                    
                                                                                                    
                                                                                                    
                                                                                                    
                                                                                                    
                                                                                                    
                                                                                                    
                                                                                                    
                                                                                                    
                           
<?xpacket end="w"?></metadata>
<defs>
    <style>
      .cls-1 {
        fill: #fff;
        fill-rule: evenodd;
      }
    </style>
  </defs>
  <path class="cls-1" d="M1675,835a11.035,11.035,0,1,0,7.77,3.234A11.01,11.01,0,0,0,1675,835h0Zm0,20.889a9.929,9.929,0,1,1,6.98-2.906,9.878,9.878,0,0,1-6.98,2.906h0Zm4.08-13.083-5.41,5.108-2.59-2.638h0a0.608,0.608,0,0,0-.8-0.03,0.592,0.592,0,0,0,0,.8l2.97,3.025a0.569,0.569,0,0,0,.39.169,0.669,0.669,0,0,0,.38-0.139l5.84-5.5a0.57,0.57,0,0,0,.02-0.794,0.576,0.576,0,0,0-.8-0.01h0Z" transform="translate(-1664 -835)"/>
</svg>
