<?xml version="1.0" encoding="utf-8"?>
<!-- Generator: Adobe Illustrator 21.0.0, SVG Export Plug-In . SVG Version: 6.00 Build 0)  -->
<svg version="1.1" id="Layer_1" xmlns="http://www.w3.org/2000/svg" xmlns:xlink="http://www.w3.org/1999/xlink" x="0px" y="0px"
	 viewBox="0 0 187.4 42.5" style="enable-background:new 0 0 187.4 42.5;" xml:space="preserve">
<style type="text/css">
	.st0{fill:#FFFFFF;}
</style>
<path class="st0" d="M94.5,8.5l-0.8,0l0,0l0,7.7c0,0.5,0.3,0.8,0.8,0.8c0.5,0,0.8-0.3,0.8-0.8V9.3C95.3,8.8,95,8.5,94.5,8.5"/>
<path class="st0" d="M89.1,17c1.6,0,2.4-0.8,2.4-2.4v0v-0.2l0-5.1v0c0-0.5-0.2-0.7-0.7-0.7l-0.1,0c0,0,0,0,0,0c0,0,0,0,0,0l-0.6,0
	c0,0-0.1,0-0.1,0l0,6h0v0c0,0.5-0.3,0.8-0.9,0.8h-1.9l0-6.1c0,0,0,0,0,0v0c0-0.5-0.2-0.7-0.7-0.7l-0.1,0c0,0,0,0,0,0c0,0,0,0,0,0
	l-0.7,0l-0.1,0v0.8v0l0,6.1h-1.5c-0.3,0-0.4,0.3-0.4,0.8c0,0.5,0.1,0.8,0.4,0.8H89.1z"/>
<path class="st0" d="M114.9,18.4L114.9,18.4c0,0.5,0.3,0.8,0.8,0.8l0.6,0c1.5,0,2.3-0.7,2.4-2.2l0-3.9h0v-1.2c0-0.5-0.2-0.7-0.7-0.7
	l-0.8,0h-0.1V12c0,0,0,0.1,0,0.1v4.7c0,0.5-0.3,0.8-0.8,0.8l-0.6,0C115.1,17.6,114.9,17.8,114.9,18.4"/>
<path class="st0" d="M143.8,17c0.8,0,1.1-0.3,1.1-0.8v-6.1V9.3V9.2c0-0.5-0.2-0.7-0.7-0.7l0,0c0,0,0,0,0,0c0,0,0,0,0,0l-0.7,0h-0.1
	v0.8v0v6.1l-3.1,0l0-4.3c0-0.5-0.2-0.7-0.7-0.7l-0.8,0c0,0-0.1,0-0.1,0l0,5.1h-2.1l0-4.3c0-0.5-0.2-0.7-0.7-0.7l-0.8,0
	c0,0-0.1,0-0.1,0l0,5.1h-1.9l0-4.3c0-0.5-0.2-0.7-0.7-0.7l-0.8,0c0,0-0.1,0-0.1,0l0,5.1l-8.4,0h-0.1c-0.6,0-0.9-0.3-0.9-0.8l0-5.4
	c0-0.4-0.2-0.7-0.6-0.7c-0.1,0-0.1,0-0.2,0c-0.1,0-0.1,0-0.2,0l-0.5,0c0,0-0.1,0-0.1,0v6.1c0,1.6,0.8,2.4,2.4,2.4h-0.1H143.8z"/>
<path class="st0" d="M114,17c0.5,0,0.8-0.3,0.8-0.8l0-3.5c0-1.6-0.8-2.4-2.4-2.4h-1.1c-1.6,0-2.4,0.8-2.4,2.4l0,1.8
	c0,0.3,0,0.6,0.1,0.8c0,0-2.7,0-2.7,0l0-4.2c0-0.5-0.3-0.8-0.8-0.8l-2.7,0c-1.6,0-2.4,0.8-2.4,2.4l0,1.8c0,1.6,0.8,2.4,2.4,2.4H114z
	 M104.6,15.4h-1.9c-0.5,0-0.8-0.3-0.8-0.8l0-1.8c0-0.5,0.3-0.8,0.8-0.8h1.3l0.6,0L104.6,15.4z M110.5,12.8c0-0.5,0.3-0.8,0.8-0.8
	h1.1c0.5,0,0.8,0.3,0.8,0.8l0,2.6h-1.9c-0.5,0-0.8-0.3-0.8-0.8L110.5,12.8z"/>
<path class="st0" d="M147.6,17c0.5,0,0.8-0.3,0.8-0.8V9.3c0-0.5-0.3-0.8-0.8-0.8l-0.8,0c0,0,0,0,0,0l0,7.7
	C146.8,16.7,147,17,147.6,17"/>
<path class="st0" d="M164.3,17L164.3,17v-4.3c0-1.6-0.8-2.4-2.4-2.4h-1.1c-1.6,0-2.4,0.8-2.4,2.4v1.8c0,0.3,0,0.6,0.1,0.8h-2.6
	c-0.5,0-0.8-0.3-0.8-0.8l0-3.2c0-0.5-0.3-0.7-0.7-0.7l-0.9,0v3.9c0,1.6,0.8,2.5,2.4,2.5L164.3,17z M162.7,15.4l-2,0
	c-0.5,0-0.7-0.3-0.7-0.8v-1.8c0-0.5,0.3-0.8,0.8-0.8h1.1c0.5,0,0.8,0.3,0.8,0.8V15.4z"/>
<path class="st0" d="M41.8,19.3c0.1,0.1,0.3,0.1,0.4,0.1c0.2,0,0.3,0,0.4-0.1c0.1-0.1,0.3-0.2,0.3-0.3c0.1-0.1,0.1-0.3,0.1-0.4
	s0-0.3-0.1-0.4c-0.1-0.1-0.2-0.3-0.3-0.3c-0.1-0.1-0.3-0.1-0.4-0.1c-0.2,0-0.3,0-0.4,0.1c-0.1,0.1-0.3,0.2-0.3,0.3
	c-0.1,0.1-0.1,0.3-0.1,0.4s0,0.3,0.1,0.4C41.6,19.1,41.7,19.3,41.8,19.3"/>
<path class="st0" d="M44.9,17.8c-0.1-0.1-0.3-0.1-0.4-0.1c-0.2,0-0.3,0-0.4,0.1c-0.1,0.1-0.3,0.2-0.3,0.3c-0.1,0.1-0.1,0.3-0.1,0.4
	s0,0.3,0.1,0.4c0.1,0.1,0.2,0.2,0.3,0.3c0.1,0.1,0.3,0.1,0.4,0.1c0.1,0,0.3,0,0.4-0.1c0.1-0.1,0.3-0.2,0.3-0.3
	c0.1-0.1,0.1-0.3,0.1-0.4s0-0.3-0.1-0.4C45.2,18,45.1,17.9,44.9,17.8"/>
<path class="st0" d="M184.6,17l-0.3,0h0.7c1.6,0,2.4-0.7,2.4-2.3v-1.9c0-1.6-0.8-2.4-2.4-2.4h-1.1c-1.6,0-2.4,0.8-2.4,2.4l0,2.6
	h-2.6v-2.7c0-1.6-0.8-2.3-2.4-2.3h-4.2c-0.3,0-0.5,0.1-0.6,0.2v-0.1c0-0.3-0.1-0.5-0.2-0.6c0,0,0,0,0,0c0,0,0,0-0.1,0
	c-0.1-0.1-0.3-0.1-0.4-0.1c0,0,0,0,0,0h0h0h0l-0.8,0h0l0,5.7c0,0-1.8,0-2,0v-4.2v0c0-0.5-0.3-0.8-0.8-0.8l-0.8,0c0,0,0,0,0,0l0,6.4
	c0,0.6-0.3,0.8-0.8,0.8h-0.6c-0.5,0-0.8,0.3-0.8,0.8h0l0,0c0,0.5,0.3,0.8,0.8,0.8l0.6,0c1.5,0,2.3-0.7,2.7-2.2L184.6,17z
	 M183.1,12.8c0-0.5,0.3-0.8,0.8-0.8h1.1c0.5,0,0.8,0.3,0.8,0.8v1.8c0,0.6-0.3,0.8-0.8,0.8h-1.9V12.8z M171.6,15.4v-3.5h4.9
	c0.5,0,0.8,0.3,0.8,0.8v2.6H171.6z"/>
<path class="st0" d="M56.6,10.3h-1.1c-1.6,0-2.4,0.8-2.4,2.4l0,2.6h-2.8v-2.6c0-1.6-0.8-2.5-2.4-2.5l-1.9,0c-0.5,0-0.8,0.3-0.8,0.8
	v4.3h-3.6c-0.6,0-0.8-0.3-0.8-0.8v-2.3c0-0.5-0.2-0.7-0.7-0.7l-0.7,0h-0.1v3c0,0,0,0,0,0v0.1h0c0,1.5,0.9,2.3,2.4,2.3h4.3l0.1,0
	c0.5,0,0.8-0.3,0.8-0.9v-4.2h1.1c0.5,0,0.8,0.3,0.8,0.8v3.4c0,0.5,0.3,0.8,0.8,0.8h0.3h4.7h2.5c1.3-0.1,2-1,2-2.5v-1.8
	C59.1,11.1,58.3,10.3,56.6,10.3 M57.4,14.6c0,0.6-0.3,0.8-0.8,0.8h-1.9v-2.7c0-0.5,0.3-0.8,0.8-0.8h1.1c0.5,0,0.8,0.3,0.8,0.8V14.6z
	"/>
<path class="st0" d="M81.6,10.3l-0.8,0c0,0-0.1,0-0.1,0v4.2c0,0.6-0.3,0.8-0.8,0.8l-1.3,0l0-4.3c0-0.5-0.2-0.7-0.7-0.7l-0.8,0
	c0,0-0.1,0-0.1,0l0,5.1h-1.9l0-4.3c0-0.5-0.2-0.7-0.7-0.7l-0.8,0c0,0-0.1,0-0.1,0v5.1h-5.7c0-0.2,0.1-0.3,0.1-0.5h0V9.3v0
	c0-0.5-0.2-0.7-0.7-0.7l-0.1,0c0,0,0,0,0,0c0,0,0,0,0,0l-0.6,0c0,0-0.1,0-0.1,0v6.2c0,0.5-0.3,0.7-0.8,0.7h0.1h-1.4V9.3v0v0
	c0-0.5-0.2-0.7-0.7-0.7l-0.1,0c0,0,0,0,0,0c0,0,0,0,0,0l-0.7,0c0,0-0.1,0-0.1,0v6.9h-2c-0.3,0-0.4,0.3-0.4,0.8
	c0,0.5,0.1,0.8,0.4,0.8l18.1,0h1.3c1.6,0,2.4-0.8,2.4-2.5v-2.6v-0.1v-0.7C82.3,10.6,82.1,10.3,81.6,10.3"/>
<path class="st0" d="M101.7,9.5c0.1,0.1,0.3,0.1,0.4,0.1c0.2,0,0.3,0,0.4-0.1c0.1-0.1,0.3-0.2,0.3-0.3C103,9,103,8.9,103,8.7
	c0-0.1,0-0.3-0.1-0.4c-0.1-0.1-0.2-0.3-0.3-0.3c-0.1-0.1-0.3-0.1-0.4-0.1c-0.2,0-0.3,0-0.4,0.1c-0.1,0.1-0.2,0.2-0.3,0.3
	c-0.1,0.1-0.1,0.3-0.1,0.4c0,0.2,0,0.3,0.1,0.4C101.5,9.3,101.6,9.4,101.7,9.5"/>
<path class="st0" d="M104.8,8c-0.1-0.1-0.3-0.1-0.4-0.1c-0.1,0-0.3,0-0.4,0.1c-0.1,0.1-0.3,0.2-0.3,0.3c-0.1,0.1-0.1,0.3-0.1,0.4
	c0,0.1,0,0.3,0.1,0.4c0.1,0.1,0.2,0.2,0.3,0.3c0.1,0.1,0.3,0.1,0.4,0.1c0.1,0,0.3,0,0.4-0.1c0.1-0.1,0.3-0.2,0.3-0.3
	c0.1-0.1,0.1-0.3,0.1-0.4c0-0.2,0-0.3-0.1-0.4C105.1,8.2,105,8,104.8,8"/>
<path class="st0" d="M110.3,9.5c0.1,0.1,0.3,0.1,0.4,0.1c0.1,0,0.3,0,0.4-0.1c0.1-0.1,0.3-0.2,0.3-0.3c0.1-0.1,0.1-0.3,0.1-0.4
	c0-0.1,0-0.3-0.1-0.4c-0.1-0.1-0.2-0.3-0.3-0.3c-0.1-0.1-0.3-0.1-0.4-0.1c-0.2,0-0.3,0-0.4,0.1C110.2,8,110,8.2,110,8.3
	c-0.1,0.1-0.1,0.3-0.1,0.4c0,0.2,0,0.3,0.1,0.4C110,9.3,110.2,9.4,110.3,9.5"/>
<path class="st0" d="M113.4,8c-0.1-0.1-0.3-0.1-0.4-0.1c-0.1,0-0.3,0-0.4,0.1c-0.1,0.1-0.3,0.2-0.3,0.3c-0.1,0.1-0.1,0.3-0.1,0.4
	c0,0.1,0,0.3,0.1,0.4c0.1,0.1,0.2,0.2,0.3,0.3c0.1,0.1,0.3,0.1,0.4,0.1c0.1,0,0.3,0,0.4-0.1c0.1-0.1,0.3-0.2,0.3-0.3
	c0.1-0.1,0.1-0.3,0.1-0.4c0-0.2,0-0.3-0.1-0.4C113.6,8.2,113.5,8,113.4,8"/>
<path class="st0" d="M133.9,9.5c0.1,0.1,0.3,0.1,0.4,0.1c0.1,0,0.3,0,0.4-0.1c0.1-0.1,0.3-0.2,0.3-0.3c0.1-0.1,0.1-0.3,0.1-0.4
	c0-0.1,0-0.3-0.1-0.4C135,8.2,134.9,8,134.7,8c-0.1-0.1-0.3-0.1-0.4-0.1c-0.2,0-0.3,0-0.4,0.1c-0.1,0.1-0.2,0.2-0.3,0.3
	c-0.1,0.1-0.1,0.3-0.1,0.4c0,0.2,0,0.3,0.1,0.4C133.6,9.3,133.7,9.4,133.9,9.5"/>
<path class="st0" d="M137,8c-0.1-0.1-0.3-0.1-0.4-0.1c-0.1,0-0.3,0-0.4,0.1c-0.1,0.1-0.3,0.2-0.3,0.3c-0.1,0.1-0.1,0.3-0.1,0.4
	c0,0.1,0,0.3,0.1,0.4c0.1,0.1,0.2,0.2,0.3,0.3c0.1,0.1,0.3,0.1,0.4,0.1c0.1,0,0.3,0,0.4-0.1c0.1-0.1,0.3-0.2,0.3-0.3
	c0.1-0.1,0.1-0.3,0.1-0.4c0-0.2,0-0.3-0.1-0.4C137.2,8.2,137.1,8,137,8"/>
<path class="st0" d="M135.8,6c-0.1-0.1-0.3-0.1-0.4-0.1c-0.1,0-0.3,0-0.4,0.1c-0.1,0.1-0.3,0.2-0.3,0.3c-0.1,0.1-0.1,0.3-0.1,0.4
	c0,0.2,0,0.3,0.1,0.4c0.1,0.1,0.2,0.2,0.3,0.3c0.1,0.1,0.3,0.1,0.4,0.1c0.1,0,0.3,0,0.4-0.1c0.1-0.1,0.3-0.2,0.3-0.3
	c0.1-0.1,0.1-0.3,0.1-0.4c0-0.1,0-0.3-0.1-0.4C136.1,6.2,136,6.1,135.8,6"/>
<path class="st0" d="M161.8,8c-0.1-0.1-0.3-0.1-0.4-0.1c-0.1,0-0.3,0-0.4,0.1c-0.1,0.1-0.3,0.2-0.3,0.3c-0.1,0.1-0.1,0.3-0.1,0.4
	c0,0.1,0,0.3,0.1,0.4c0.1,0.1,0.2,0.2,0.3,0.3c0.1,0.1,0.3,0.1,0.4,0.1c0.1,0,0.3,0,0.4-0.1c0.1-0.1,0.3-0.2,0.3-0.3
	c0.1-0.1,0.1-0.3,0.1-0.4c0-0.2,0-0.3-0.1-0.4C162.1,8.2,161.9,8,161.8,8"/>
<path class="st0" d="M87,18.6l-0.9,0c-0.1,0-0.1,0-0.1,0v-0.5c0-0.1,0-0.1,0-0.1h0.6c0.2,0,0.3-0.1,0.3-0.3c0-0.2-0.1-0.3-0.3-0.3
	h-0.6c-0.4,0-0.6,0.2-0.6,0.7v0.4c0,0,0,0,0,0.1h0c-0.2,0-0.3,0.1-0.3,0.3c0,0.2,0.1,0.3,0.3,0.3H87c0.2,0,0.3-0.1,0.3-0.3
	C87.3,18.7,87.2,18.6,87,18.6"/>
<path class="st0" d="M101.1,25.5l-0.9,0c0,0,0,0,0,0l0,7.7c0,0.5,0.3,0.8,0.9,0.8c0.6,0,0.8-0.3,0.8-0.8v-6.9
	C102,25.9,101.7,25.5,101.1,25.5"/>
<path class="st0" d="M140.1,25.5l-0.9,0c0,0,0,0,0,0l0,7.7c0,0.5,0.3,0.8,0.9,0.8c0.6,0,0.8-0.3,0.8-0.8v-7
	C140.9,25.8,140.6,25.5,140.1,25.5"/>
<path class="st0" d="M43.8,29.4l-2.1-0.8c-0.5-0.2-0.7-0.4-0.7-0.8v-0.2c0-0.5,0.3-0.7,1-0.7h2.6c0.1,0,0.2-0.1,0.2-0.2v-0.9
	c0-0.1-0.1-0.2-0.2-0.2c-0.9-0.2-1.4-0.2-2.3-0.2c-2,0-3.1,0.5-3.1,2.1v0.2c0,1.3,0.4,1.9,1.3,2.2l2.2,0.8c0.6,0.2,0.8,0.4,0.8,0.9
	v0.1c0,0.5-0.3,0.7-1,0.7h-3.1c-0.1,0-0.2,0.1-0.2,0.2v0.8c0,0.1,0,0.2,0.2,0.2c1,0.2,1.9,0.2,2.7,0.2c1.9,0,3.2-0.5,3.2-2.1v-0.3
	C45.4,30.3,44.9,29.8,43.8,29.4"/>
<path class="st0" d="M61.3,26.8c-0.3-1.2-0.5-1.3-1.9-1.3c-1.3,0-1.5,0.1-1.8,1.3l-2,7.1c0,0.1,0,0.2,0.1,0.2h1.4
	c0.1,0,0.1,0,0.2-0.2l0.6-2.3h3l0.6,2.3c0,0.1,0,0.2,0.1,0.2h1.4c0.1,0,0.2,0,0.1-0.2L61.3,26.8z M58.3,30.1l0.8-2.9
	c0.1-0.3,0.1-0.3,0.3-0.3c0.2,0,0.2,0.1,0.3,0.3l0.8,2.9H58.3z"/>
<path class="st0" d="M69.6,30.8c1.3-0.2,1.7-0.9,1.7-2.6c0-2.2-0.8-2.8-3.2-2.8h-3.1v0.3v0.7v7.5c0,0.1,0,0.2,0.2,0.2h1.4
	c0.1,0,0.2,0,0.2-0.2v-2.9h1l1.8,2.8c0.1,0.2,0.2,0.2,0.4,0.2h1.4c0.2,0,0.2-0.1,0.1-0.2L69.6,30.8z M67.8,29.6h-1.2v-2.7h1.2
	c1.3,0,1.7,0.3,1.7,1.4C69.5,29.4,69.2,29.6,67.8,29.6"/>
<path class="st0" d="M84.5,26.8c-0.3-1.2-0.5-1.3-1.9-1.3c-1.3,0-1.5,0.1-1.8,1.3l-2,7.1c0,0.1,0,0.2,0.1,0.2h1.4
	c0.1,0,0.1,0,0.2-0.2l0.6-2.3h3l0.6,2.3c0,0.1,0,0.2,0.1,0.2h1.4c0.1,0,0.2,0,0.1-0.2L84.5,26.8z M81.6,30.1l0.8-2.9
	c0.1-0.3,0.1-0.3,0.3-0.3c0.2,0,0.2,0.1,0.3,0.3l0.8,2.9H81.6z"/>
<path class="st0" d="M108.3,29.4l-2.1-0.8c-0.5-0.2-0.7-0.4-0.7-0.8v-0.2c0-0.5,0.3-0.7,1-0.7h2.6c0.1,0,0.2-0.1,0.2-0.2v-0.9
	c0-0.1-0.1-0.2-0.2-0.2c-0.9-0.2-1.4-0.2-2.3-0.2c-2,0-3.1,0.5-3.1,2.1v0.2c0,1.3,0.4,1.9,1.3,2.2l2.2,0.8c0.6,0.2,0.8,0.4,0.8,0.9
	v0.1c0,0.5-0.3,0.7-1,0.7h-3.1c-0.1,0-0.2,0.1-0.2,0.2v0.8c0,0.1,0,0.2,0.2,0.2c1,0.2,1.9,0.2,2.7,0.2c1.9,0,3.2-0.5,3.2-2.1v-0.3
	C109.8,30.3,109.3,29.8,108.3,29.4"/>
<path class="st0" d="M116.8,32.5h-3.6v-5.4l0-0.9c0-0.5-0.3-0.7-0.9-0.8l-0.9,0c0,0,0,0,0,0l0,1.6h0v6.7c0,0.1,0.1,0.2,0.2,0.2h5.2
	c0.1,0,0.2-0.1,0.2-0.2v-1.2C116.9,32.6,116.9,32.5,116.8,32.5"/>
<path class="st0" d="M124,26.8c-0.3-1.2-0.5-1.3-1.9-1.3c-1.3,0-1.5,0.1-1.8,1.3l-2,7.1c0,0.1,0,0.2,0.1,0.2h1.4
	c0.1,0,0.1,0,0.2-0.2l0.6-2.3h3l0.6,2.3c0,0.1,0,0.2,0.1,0.2h1.4c0.1,0,0.2,0,0.1-0.2L124,26.8z M121,30.1l0.8-2.9
	c0.1-0.3,0.1-0.3,0.3-0.3c0.2,0,0.2,0.1,0.3,0.3l0.8,2.9H121z"/>
<path class="st0" d="M136.2,25.5h-1.3c-0.4,0-0.5,0.1-0.6,0.4l-2.1,5.6l-2.1-5.6c-0.1-0.3-0.3-0.4-0.6-0.4h-1.3
	c-0.1,0-0.1,0.1-0.1,0.2l-0.8,8.2c0,0.1,0.1,0.2,0.2,0.2h1.4c0.1,0,0.2-0.1,0.2-0.2l0.5-5.3l2,5.3c0.1,0.1,0.1,0.2,0.2,0.2h1
	c0.1,0,0.2-0.1,0.2-0.2l2-5.3l0.5,5.3c0,0.1,0.1,0.2,0.2,0.2h1.4c0.1,0,0.2-0.1,0.2-0.2l-0.8-8.2C136.4,25.6,136.4,25.5,136.2,25.5"
	/>
<path class="st0" d="M148.1,25.5c-0.5-0.1-1.2-0.2-2.2-0.2c-2.8,0-3.3,1-3.3,4.3s0.4,4.3,3.3,4.3c1,0,1.6-0.1,2.2-0.2
	c0.2,0,0.3-0.1,0.3-0.3v-0.9c0-0.1-0.1-0.2-0.2-0.2h-2.3c-1.5,0-1.5-0.7-1.5-2.8s0-2.8,1.5-2.8h2.3c0.1,0,0.2-0.1,0.2-0.2v-0.9
	C148.4,25.7,148.3,25.6,148.1,25.5"/>
<path class="st0" d="M158.7,29.7L158.7,29.7c0.9-0.2,1.3-0.8,1.3-2c0-1.8-0.9-2.4-3.1-2.4c-0.9,0-2.1,0-3.1,0.1
	c-0.1,0-0.2,0-0.2,0.2v8.1c0,0.1,0,0.1,0.2,0.2c1,0.1,2.4,0.1,3.4,0.1c2.1,0,3-0.5,3-2.3C160.1,30.5,159.8,29.8,158.7,29.7
	 M155.3,26.9h1.3c1,0,1.5,0.2,1.5,1.1c0,0.9-0.5,1.1-1.7,1.1h-1.1V26.9z M157,32.5h-1.7v-2.2h1.7c0.9,0,1.3,0.2,1.3,1.1
	C158.3,32.3,157.9,32.5,157,32.5"/>
<path class="st0" d="M167.3,26.8c-0.3-1.2-0.5-1.3-1.9-1.3c-1.3,0-1.5,0.1-1.8,1.3l-2,7.1c0,0.1,0,0.2,0.1,0.2h1.4
	c0.1,0,0.1,0,0.2-0.2l0.6-2.3h3l0.6,2.3c0,0.1,0,0.2,0.1,0.2h1.4c0.1,0,0.2,0,0.1-0.2L167.3,26.8z M164.3,30.1l0.8-2.9
	c0.1-0.3,0.1-0.3,0.3-0.3c0.2,0,0.2,0.1,0.3,0.3l0.8,2.9H164.3z"/>
<path class="st0" d="M178.1,25.5h-1.4c-0.1,0-0.2,0.1-0.2,0.2v5.2l-3.4-5c-0.2-0.3-0.2-0.4-0.7-0.4h-1.1c-0.1,0-0.2,0.1-0.2,0.2v8.2
	c0,0.1,0.1,0.2,0.2,0.2h1.4c0.1,0,0.2-0.1,0.2-0.2v-5.4l3.6,5.3c0.2,0.2,0.3,0.3,0.6,0.3h1c0.1,0,0.2-0.1,0.2-0.2v-8.2
	C178.3,25.6,178.2,25.5,178.1,25.5"/>
<path class="st0" d="M187.3,33.7l-3.2-4.3l2.9-3.7c0.1-0.1,0.1-0.2-0.1-0.2h-1.6c-0.1,0-0.2,0-0.2,0.1l-2.8,3.6V27v-0.8
	c0-0.5-0.3-0.7-0.9-0.8l-0.9,0c0,0,0,0,0,0l0,1.5h0v5.4h0l0,0.8c0,0.5,0.3,0.8,0.9,0.8c0.6,0,0.8-0.3,0.8-0.8v-0.8v-2.6l3,4.1
	c0,0.1,0.1,0.1,0.2,0.1h1.6C187.4,34,187.4,33.9,187.3,33.7"/>
<path class="st0" d="M53.4,25.5l-0.9,0c0,0,0,0,0,0v2.8h0V29h-3.7v-0.6l0-2.1c0-0.5-0.3-0.7-0.9-0.8l-0.9,0c0,0,0,0,0,0v2.8h0v4.1h0
	v0.7c0,0.5,0.3,0.8,0.9,0.8c0.6,0,0.8-0.3,0.8-0.8v-0.7v-2h3.7v2h0l0,0.7c0,0.5,0.3,0.8,0.9,0.8c0.6,0,0.8-0.3,0.8-0.8v-0.7v-4.1
	l0-2.1C54.3,25.8,54,25.5,53.4,25.5"/>
<path class="st0" d="M76.6,25.5l-0.9,0c0,0,0,0,0,0v2.3h0v2.1c0,0.7,0,1.3-0.2,1.7c-0.1,0.2-0.2,0.4-0.3,0.5c0,0,0,0,0,0
	c-0.1,0.1-0.1,0.1-0.2,0.2c-0.3,0.2-0.8,0.3-1,0.3h-0.9c-0.1,0-0.2,0.1-0.2,0.2v0.9c0,0.2,0.1,0.2,0.3,0.3c0.2,0,0.4,0.1,0.6,0.1
	c0.6,0.1,2.1,0.1,2.9-0.9c0.5-0.7,0.6-1.7,0.6-3.2v-0.7l0-3C77.4,25.8,77.1,25.5,76.6,25.5"/>
<path class="st0" d="M94.4,25.5l-0.9,0c0,0,0,0,0,0l0,2.8h0V29h-3.7v-0.6v-2c0-0.5-0.3-0.8-0.9-0.8l-0.9,0l0,7.2v0.6
	c0,0.5,0.3,0.8,0.9,0.8c0.6,0,0.9-0.3,0.9-0.8v-0.7v-2h2h1.7h0v2.2v0.5c0,0.5,0.3,0.8,0.9,0.8c0.6,0,0.8-0.3,0.8-0.8v-0.7v-4.1v-2
	C95.3,25.9,95,25.5,94.4,25.5"/>
<path class="st0" d="M16.9,5.2c0,0-1.4,1.2-1.8,2.3c-0.4,1.1-0.5,1.5,0.2,3.3c0.7,1.8,3.1,8.8,3.1,8.8s0.8,1.7-0.6,2.7
	c0,0-0.9,0.7-0.7,0.6c0.2-0.1,3-0.7,2.1-3.2c-0.4-1.2-3.5-9.8-3.5-9.8S14.8,7.7,17,5.6L16.9,5.2z"/>
<path class="st0" d="M19.8,21.2c0,0,1.2-1,0.8-2.4c-0.4-1.4-3.4-10-3.4-10s-0.9-2-0.1-3.6c0,0-1.1,0.9-1,2.3c0.1,1.4,1,3.2,1.4,4.4
	c0.4,1.2,2.4,7,2.4,7s0.3,1.1,0.1,1.6C19.8,21.1,19.6,21.4,19.8,21.2"/>
<path class="st0" d="M15.2,10c0,0-0.7,0.9,0,2.8c0.7,1.9,2.4,6.8,2.4,6.8s0.8,1.9-0.1,3l-0.3,0.2c0,0,0.6-0.8,0.2-2
	c-0.4-1.2-2.6-7-2.6-7s-0.7-1.8-0.3-3L15.2,10z"/>
<path class="st0" d="M18.6,23.4l0-0.3c0,0-0.1-0.1-0.2-0.1c-0.1,0.1-0.3,0.3-0.2,0.6c0.1,0.2,0.2,0.2,0.2,0.2l-0.1,0.1l0,0.2
	c0,0,0.1,0,0.2-0.2c0.2-0.2,0.4-0.4,0.4-0.4l0-0.3c0,0-0.3,0.2-0.4,0.3c-0.1,0.1-0.3,0.1-0.4,0c0-0.1,0.1-0.2,0.2-0.2
	C18.5,23.3,18.6,23.4,18.6,23.4"/>
<polygon class="st0" points="21.8,22.9 21.7,23.7 22.5,23.8 22.6,23 "/>
<polygon class="st0" points="21,23.6 20.8,24.4 21.6,24.5 21.7,23.7 "/>
<polygon class="st0" points="20.1,24.2 19.9,25 20.7,25.1 20.8,24.3 "/>
<path class="st0" d="M22.5,37.9c0,0-1.3-1-1.2-5.6l0.4,0c0,0-0.4,3.4,0.7,5.2L22.5,37.9z"/>
<path class="st0" d="M23.2,23.9c0,0,0-0.3-1.2-3.6c-0.3-0.7-5.3-15.1-5.3-15.1s-0.7-1.6,1-3.5C18,1.4,19.1,0.2,19.6,0l0.1,0.5
	c0,0-2.6,1.7-2.3,3.9c0.2,1.4,0.6,2.1,0.6,2.1l5.2,14.8c0,0,0.7,1.7,0.4,3c-0.1,0.9-1,1-1,1s0.2,1-0.9,1.1c0,0-0.1,0.9-0.9,0.8
	c0,0,0,0.9-1.1,1c-1.1,0.2-1.6-1-2-2c-0.4-1-4.2-11.3-4.2-11.3s-1.5-3.1,1.5-5.3l0.1,0.5c0,0-1.3,1.3-1.3,2.2c0,0.9,0.1,1.6,0.4,2.4
	c0.3,0.8,4.2,11.5,4.2,11.5s0.4,1.3,1.4,0.9c1-0.3,0.7-1.5,0.7-1.6c0-0.1,0.1,0,0.2,0.1c0,0.1,0.1,0.6,0.1,0.6s0.7,0,0.7-0.8
	c0-0.8,0.1-0.7,0.1-0.6c0.1,0.1,0.1,0.6,0.1,0.6s0.7,0.1,0.6-0.8c-0.1-0.7,0-0.6,0.1-0.6c0,0,0.1,0.3,0.1,0.3S23,24.5,23.2,23.9"/>
<path class="st0" d="M13.5,26.6C13,26,13,25.5,13,25.5c0-1.7,0.3-2.3,0.3-2.3s0.8,1.1,0.8,1.6C14.2,25.5,13.5,26.6,13.5,26.6
	 M21.8,21.3c0-0.6-0.3-1.5-0.4-1.5c-0.1,0,0,0.3,0,0.3c0.1,0.4,0,0.7-0.2,0.9c-0.2,0.3-0.2,0.1-0.2,0.1s0-0.7-0.2-0.5
	c-0.2,0.2,0,0.8,0,0.9c0,0.1,0,0.6-0.4,0.7c-0.4,0.2-0.5-0.4-0.6-0.5c0-0.1,0-0.3-0.2-0.3c-0.1,0-0.3,0.7-0.3,1.2
	c0,0.5-0.1,1.4-0.6,2.1c-0.6,0.7-1.8,1-2.6-0.4c-0.8-1.4-1.7-3.9-1.7-4c-0.1-0.2-0.1-0.2-0.1-0.1c-0.1,0,0,0.5,0,0.7
	c0,0.2,0,0.6,0,0.6s1.2,2.9,1.3,3.4c0.1,0.5,0,1,0,1C15.2,27.2,14,27,14,27c0.2-0.4,0.4-1.4,0.4-2.3c-0.1-0.9-0.9-2.3-0.9-2.5
	c-0.1-0.2-0.1-0.4-0.2-0.4c-0.1,0-0.1,0.1-0.2,0.4c0,0.3-0.3,1-0.5,2.6c-0.1,1.6,0.4,2.4,0.4,2.4c-0.3,0.5-0.8,0.9-1.1,1.2
	c-0.3,0.3-0.1,0.2-0.1,0.2c1.2-0.4,1.6-1,1.6-1c0.6,0.5,1.4,0.5,2-0.3s0.4-2.5,0.4-2.5s0.9,2,2.3,1.5c1.9-0.4,1.6-3,1.6-3.3
	c0-0.3,0.1-0.3,0.1-0.3c0.1,0.2,0.3,0.7,0.8,0.6c0.5-0.1,0.5-1,0.5-1C21.5,22.1,21.7,21.9,21.8,21.3"/>
<path class="st0" d="M4.2,32.7c0,0,0-0.1,0.1-0.1c0.1,0,0.1,0.1,0.1,0.3c0,0.1,0.3,2.1,1.8,2.8c0,0,0.6,0.3,1-0.1
	c0.3-0.4,0.3-1,0.4-1.3c0-0.2,0.1-1.3,0.6-2c0.6-0.7,1-0.5,1-0.4c0,0.1,0.3,1,1.1,1.2c0.8,0.3,2.7,0.3,3.9-2.1
	c0.1-0.1,0.2-0.3,0-0.4c-0.2-0.1-0.3-0.1-0.3-0.1s0.1,0.3-0.1,0.5c-0.2,0.2-0.8,0.5-1.1-0.1c0,0-0.1-0.3-0.1-0.9c0-0.5,0.4-1,0.7-1
	c0.4,0,1.2,0.3,1.3,1.5c0.1,1.2-0.9,2.7-2.1,3.3c-1.2,0.6-2.6,0.3-3.2-0.5c0,0-0.2-0.4-0.2-0.5c0,0,0-0.1-0.2,0.1
	c-0.2,0.2-0.7,0.5-0.8,1.4c-0.1,1-0.1,2.2-1.2,2.1c-1.1-0.1-2-1.7-2.3-2.8C4.4,33.7,4.2,33.1,4.2,32.7"/>
<path class="st0" d="M11.5,35.3c0,0,0-0.1,0.1-0.1c0.1,0,2.3-0.5,3.4-2.8c0.4-0.9,0.7-2.4,0.8-3.4c0.1-1,0.3-1.8,0.8-1.9
	c0,0,0.1,0,0.2,0.4c0.1,0.4,0.3,0.8,0.2,0.9c-0.1,0-0.2-0.1-0.3-0.2c-0.1-0.1-0.5,0.5-0.5,0.9c-0.1,0.4,0,3-0.7,4.2
	C14.9,34.5,13.4,35.2,11.5,35.3"/>
<path class="st0" d="M17.8,32.1c0,0,0,0.4-0.3,0.6c-0.4,0.2-0.8,0-0.9-0.3c0-0.3-0.3-1.2,0.1-1.5c0.4-0.3,1.1-0.4,1.5,0.3
	c0.4,0.7,0.1,2.1-0.3,2.6c-0.3,0.5-1.7,2.7-5.5,3.1c-0.9,0.1-3.2-0.5-2.9-2.7c0.1-0.8,0.4-1.6,0.8-2.2c0,0,0.1-0.1,0.1,0.1
	c0,0.1-0.9,1.8-0.3,2.8c0.7,1,2,1.6,4.7,0.4c2.6-1.2,3.2-2.9,3.2-3C18.1,32.2,17.8,32.1,17.8,32.1"/>
<path class="st0" d="M10.6,26.8c0.4-0.4,1.1-1,1.3-1.7c0.2-0.7,0.1-1.2-0.2-1.3c-0.3-0.1-0.9,0.5-1.1,0.7c-0.2,0.2,0,1.2,0,1.2
	s-0.3,0.2-0.5,0.4c-0.2,0.2-0.8,0.6-1,1.3c-0.2,0.6,0,1.1,0.2,1.3c0.2,0.2,0.9,0,1.1-0.1c0.3-0.1,0.4,0.1,0.4,0.1s-1,1.4-3.3,1.8
	c-1.5,0.3-4.4,0.9-7.6-1c0,0,1.7,2.9,7.2,2c2.5-0.4,3.6-1.9,3.8-2.2c0.2-0.4,0.4-1.1,0.1-1.5c-0.2-0.4-0.7-0.3-1.1-0.2
	c-0.4,0.1-0.5,0-0.5,0C9.5,27.6,10.1,27.2,10.6,26.8"/>
<polygon class="st0" points="10,30.8 10.9,31.3 10.5,32.1 9.6,31.6 "/>
<polygon class="st0" points="11.4,30.5 12.3,31 11.9,31.8 10.9,31.3 "/>
<polygon class="st0" points="17.2,29 18.1,29.5 17.8,30.3 16.8,29.8 "/>
<path class="st0" d="M20.2,34.2c0,0,0-0.4,0.2-0.3c0.1,0-0.1,0.7,0,1.7c0.1,1,0.1,3.8,3.8,5.5c0,0,0.9,0.6,3.9,1.2
	c0,0,0.2,0,0.1,0.1c-0.1,0.1-2.7,0.2-4.6-0.5c-1.9-0.6-3.4-2.5-3.5-5C20.1,36.7,20,35.9,20.2,34.2"/>
<path class="st0" d="M30.7,30.9c-1.2-2.5-3.4-4.5-5-5.8c0,0.6,0.2,1.1,1.1,2c1,0.8,2.9,3.1,3.5,4.3c0.1,0.2,0.1,0.8,0.1,1
	c-0.1-0.1-0.1-1.4-1.8-0.9c1.1,0.3,1.8,1.5,2,2.2C30.7,32.8,30.8,31.5,30.7,30.9"/>
<path class="st0" d="M23.4,33.6c-0.5,0.5-1,1.1-1.4,2.3c-0.5,1.3,0.6,2.3,0.6,2.1c0.2-3.7,3.7-5.4,5.4-4.8c0.4,0.2,1.3,0.5,0.6,1.4
	c0,0,1.2,0.7,1.8-0.7C30.6,33.6,27.1,30.6,23.4,33.6"/>
<path class="st0" d="M19.6,0l0.1,0.5c0,0-1.1,0.8-0.9,2.5c0,0,0,0.7,0.4,1.7c0.4,1.1,5.5,15.8,5.5,15.8s0.9,2.4,0.4,4.1
	c-0.3,1.1-0.5,1.8-1.9,3.2c-1.4,1.4-4.1,1.7-4.1,1.7s-1,0.2-0.4,0c0.6-0.2,5.6-2.2,6.2-5.8c0-0.2-0.1-0.9-0.2-1.1
	c-0.1-0.2-6.4-18.2-6.4-18.2S17.1,1.8,19.6,0"/>
<path class="st0" d="M25.5,28.6c-0.1-0.1-0.2-0.2-0.2-0.3c0-0.1-0.1-0.1-0.1-0.1C25,28.4,25,28.7,25,28.7c0,0.3,0,0.4,0,0.4
	s-0.2,0.3-0.4,0.5c-0.2,0.2-0.8,1.3-1.1,1.6c0.1-0.4,0.2-0.9,0.2-1.4c0-0.2,0-0.4,0-0.7l0-0.1c0-0.1,0-0.2-0.1-0.2
	c-0.1-0.1-0.2-0.1-0.2-0.1c-1.2,0.1-1.9,1.1-2.1,2.8l0,0.1c0,0.1,0,0.2,0,0.4l0,0.1c0,0-0.1,0-0.1,0c-0.3-0.1-0.3-0.3-0.4-0.4l0,0
	c-0.1-0.1-0.2-0.7-0.1-0.9c0,0,0,0,0-0.1c0,0,0,0,0,0c0,0,0,0-0.1,0l0,0h0c-1,0.5-1.2,1.1-1.3,1.3c-0.1,0.2-0.1,0.6-0.1,0.9l0,0.4
	c-0.1,1-0.4,1.8-0.9,2.3c-0.9,1-2.9,1.6-3.6,1.8c0.3,0,2.6,0,3.8-0.8c1-0.7,1-2.4,1-3.2v-0.4c0-0.7,0.9-1.2,0.9-1.2l0.1,0l0,0.1
	c0,0,0.1,0.8,0.6,1.1c0,0,0.1,0,0.1,0.1c0,0,0.1,0,0.1,0c0.2,0,0.3,0,0.4,0c1.2-0.3,1.9-1,2.5-1.9c0.6-1,0.8-1.1,1.2-1.2
	c0.4-0.1,0.6,0.2,0.7,0.1c0.1,0,0.2-0.9,0.2-1C26.4,28.9,25.8,28.7,25.5,28.6 M22.3,30.6c0.7-0.8,1.1-0.7,1.1-0.7l0,0l0,0v0.1
	c0,0.4-0.5,1.4-1.4,1.9C22,31.9,21.9,32,21.8,32c0,0,0,0-0.1,0.1l0-0.1C21.8,31.3,22,30.8,22.3,30.6"/>
</svg>
