<?xml version="1.0" encoding="utf-8"?>
<!-- Generator: Adobe Illustrator 21.0.0, SVG Export Plug-In . SVG Version: 6.00 Build 0)  -->
<svg version="1.1" id="Layer_1" xmlns="http://www.w3.org/2000/svg" xmlns:xlink="http://www.w3.org/1999/xlink" x="0px" y="0px"
	 viewBox="0 0 651.3 512.1" style="enable-background:new 0 0 651.3 512.1;" xml:space="preserve">
<style type="text/css">
	.st0{fill:#FFFFFF;}
</style>
<g>
	<path class="st0" d="M522.1,0c-6.2,0.2-12.1,3-16.3,7.6c-4.2,4.6-6.4,10.7-6,16.9c0.3,6.2,3.1,12,7.8,16.2
		c62.5,57.5,97.2,134.9,97.2,215.5s-34.7,157.9-97.2,215.5c-4.6,4.2-7.3,10-7.6,16.2c-0.3,6.2,1.9,12.2,6.1,16.8
		c4.2,4.6,10,7.3,16.2,7.5s12.2-2,16.8-6.2c71.5-66,112.2-156,112.2-249.9S610.7,72.2,539.1,6.4C534.5,2,528.4-0.2,522.1,0L522.1,0z
		"/>
	<path class="st0" d="M465.2,116.3c-6.2-0.1-12.2,2.3-16.6,6.7c-4.4,4.4-6.9,10.3-6.9,16.5s2.5,12.2,6.9,16.5
		c25.5,26,39.9,61.3,39.9,98.2s-14.4,72.2-39.9,98.2l0,0c-5.8,5.9-8,14.5-5.8,22.5s8.6,14.2,16.6,16.3c8.1,2.1,16.6-0.3,22.4-6.3
		c34.1-34.8,53.2-81.8,53.2-130.8s-19-96.1-53.2-130.8C477.5,119,471.5,116.4,465.2,116.3L465.2,116.3z"/>
	<path class="st0" d="M298.9,1.5c-11.9,2.4-23.1,8.3-31.8,17.4c-34.4,35.5-74.4,76.9-98.7,101.9c-9.9,10.2-22.8,15.8-36.2,16
		c-27.4,0.1-48.5,0.6-66,3c-17.6,2.4-33.2,7-45.2,18.4s-17,27-19,42.7c-2.1,15.6-2,33.1-2,55.2s-0.1,39.6,1.9,55.3
		c2,15.7,7,31.3,19,42.7s27.6,15.9,45.2,18.4c17.5,2.4,38.6,2.9,66,3c13.4,0.2,26.3,5.7,36.2,16c24.3,25.1,64.3,66.4,98.7,101.9
		c17.5,18.1,44.8,23.7,67.8,13.4l0,0l0,0c23-10.2,37.3-33.5,37.3-58.6V64c0-25.1-14.2-48.3-37.3-58.6l0,0l0,0
		C323.4,0.3,310.8-0.9,298.9,1.5L298.9,1.5z M316,47.9c5.4,2.4,9.6,8.6,9.6,16v384.3c0,7.5-4.2,13.6-9.6,16s-10.9,1.4-15.5-3.3
		c-34.4-35.5-74.4-76.9-98.8-102c-18.2-18.8-43-29.8-69-30.1l0,0h-0.2c-27.1-0.1-46.9-0.8-60.1-2.6c-13.1-1.8-18-4.6-19.6-6.1
		s-3.5-4.3-4.9-14.8c-1.4-10.6-1.5-27.2-1.5-49.3s0.1-38.7,1.5-49.3s3.3-13.3,4.9-14.8c1.6-1.5,6.5-4.3,19.6-6.1s33-2.4,60.1-2.5
		l0,0h0.2c26-0.3,50.8-11.3,69.1-30.1c24.3-25.1,64.3-66.4,98.7-102C305.1,46.5,310.6,45.6,316,47.9L316,47.9z"/>
</g>
</svg>
