<?xml version="1.0" encoding="utf-8"?>
<!-- Generator: Adobe Illustrator 21.0.2, SVG Export Plug-In . SVG Version: 6.00 Build 0)  -->
<svg version="1.1" id="Layer_1" xmlns="http://www.w3.org/2000/svg" xmlns:xlink="http://www.w3.org/1999/xlink" x="0px" y="0px" width="196px" height="56.5px" viewBox="0 0 196 56.5" style="enable-background:new 0 0 196 56.5;" xml:space="preserve">
  <style type="text/css">
	.st0{fill:url(#SVGID_1_);}
	.st1{fill:url(#SVGID_2_);}
	.st2{fill:url(#SVGID_3_);}
	.st3{fill:url(#SVGID_4_);}
	.st4{fill:#F9F9F9;}
</style>
  <path d="M196,48.8c0,4.2-3.4,7.6-7.6,7.6H7.6c-4.2,0-7.6-3.4-7.6-7.6V7.6C0,3.4,3.4,0,7.6,0h180.7c4.2,0,7.6,3.4,7.6,7.6V48.8z" />
  <linearGradient id="SVGID_1_" gradientUnits="userSpaceOnUse" x1="31.4485" y1="9.0985" x2="31.4485" y2="47.376">
    <stop offset="0" style="stop-color:#257DB0" />
    <stop offset="0.208" style="stop-color:#3C90B3" />
    <stop offset="0.7416" style="stop-color:#73BDB9" />
    <stop offset="1" style="stop-color:#89CEBC" />
  </linearGradient>
  <path class="st0" d="M41.1,28.2L21.8,47.4V28.2V9.1L41.1,28.2z" />
  <linearGradient id="SVGID_2_" gradientUnits="userSpaceOnUse" x1="21.7977" y1="18.5985" x2="46.2837" y2="18.5985">
    <stop offset="0" style="stop-color:#51BFAC" />
    <stop offset="1" style="stop-color:#DEE899" />
  </linearGradient>
  <path class="st1" d="M41.1,28.2L21.8,9.1V9l16.7,9.6l7.8,4.5L41.1,28.2z" />
  <linearGradient id="SVGID_3_" gradientUnits="userSpaceOnUse" x1="34.0405" y1="28.2376" x2="34.0405" y2="47.5153">
    <stop offset="0" style="stop-color:#EB403D" />
    <stop offset="0.1937" style="stop-color:#D64252" />
    <stop offset="0.7369" style="stop-color:#9F4887" />
    <stop offset="1" style="stop-color:#894A9C" />
  </linearGradient>
  <path class="st2" d="M41.1,28.2l5.2,5.1l-7.8,4.5l-16.7,9.6v-0.1L41.1,28.2z" />
  <linearGradient id="SVGID_4_" gradientUnits="userSpaceOnUse" x1="48.1435" y1="23.0969" x2="48.1435" y2="33.3777">
    <stop offset="0" style="stop-color:#F48779" />
    <stop offset="0.6121" style="stop-color:#FAB076" />
    <stop offset="1" style="stop-color:#FDC674" />
  </linearGradient>
  <path class="st3" d="M55.2,28.2l-8.9,5.1l-5.2-5.1l5.2-5.1L55.2,28.2z" />
  <path class="st4" d="M143.3,35.7c-0.7,0-1.4-0.1-2-0.4c-0.6-0.3-1.1-0.7-1.5-1.2h-0.1c0.1,0.6,0.1,1.3,0.1,1.8v4.6h-1.7V24.4h1.4
	l0.2,1.5h0.1c0.4-0.6,0.9-1,1.5-1.3c0.6-0.3,1.2-0.4,2-0.4c1.5,0,2.6,0.5,3.4,1.5c0.8,1,1.2,2.4,1.2,4.2c0,1.8-0.4,3.2-1.2,4.3
	C145.9,35.2,144.8,35.7,143.3,35.7z M143.1,25.6c-1.1,0-2,0.3-2.5,0.9c-0.5,0.6-0.8,1.6-0.8,3v0.4c0,1.6,0.3,2.7,0.8,3.4
	c0.5,0.7,1.4,1,2.5,1c1,0,1.7-0.4,2.3-1.2c0.5-0.8,0.8-1.9,0.8-3.2c0-1.4-0.3-2.5-0.8-3.2C144.8,26,144.1,25.6,143.1,25.6z
	 M151.8,35.5h-1.7V19.7h1.7V35.5z M161.5,35.5l-0.3-1.6h-0.1c-0.6,0.7-1.1,1.2-1.7,1.4c-0.6,0.2-1.2,0.4-2.1,0.4
	c-1.1,0-2-0.3-2.6-0.9s-0.9-1.4-0.9-2.4c0-2.2,1.8-3.4,5.4-3.5l1.9-0.1v-0.7c0-0.9-0.2-1.5-0.6-1.9c-0.4-0.4-1-0.6-1.8-0.6
	c-0.9,0-2,0.3-3.1,0.9l-0.5-1.3c0.5-0.3,1.1-0.5,1.8-0.7c0.7-0.2,1.3-0.3,2-0.3c1.3,0,2.3,0.3,3,0.9c0.6,0.6,1,1.5,1,2.8v7.6H161.5z
	 M157.7,34.3c1,0,1.9-0.3,2.5-0.9c0.6-0.6,0.9-1.4,0.9-2.4v-1l-1.7,0.1c-1.3,0-2.3,0.3-2.9,0.6c-0.6,0.4-0.9,0.9-0.9,1.7
	c0,0.6,0.2,1.1,0.6,1.4C156.5,34.2,157.1,34.3,157.7,34.3z M163.8,24.4h1.8l2.4,6.3c0.5,1.4,0.9,2.5,1,3.1h0.1
	c0.1-0.3,0.3-0.9,0.6-1.8c0.3-0.8,1.2-3.4,2.8-7.7h1.8l-4.8,12.7c-0.5,1.3-1,2.1-1.7,2.7c-0.6,0.5-1.4,0.8-2.3,0.8
	c-0.5,0-1-0.1-1.5-0.2V39c0.4,0.1,0.8,0.1,1.2,0.1c1.2,0,2-0.6,2.5-2l0.6-1.6L163.8,24.4z M112.1,25.4c0.5,0.4,1.7,1.4,1.7,3.1
	c0,1.7-1,2.5-2,3.3c-0.3,0.3-0.7,0.6-0.7,1.1c0,0.5,0.3,0.8,0.6,1l0.8,0.7c1,0.9,2,1.7,2,3.3c0,2.2-2.1,4.4-6.1,4.4
	c-3.4,0-5-1.6-5-3.3c0-0.8,0.4-2,1.8-2.8c1.4-0.9,3.4-1,4.4-1.1c-0.3-0.4-0.7-0.9-0.7-1.6c0-0.4,0.1-0.6,0.2-0.9c-0.3,0-0.5,0-0.7,0
	c-2.5,0-3.9-1.8-3.9-3.7c0-1.1,0.5-2.3,1.5-3.1c1.3-1.1,2.9-1.3,4.2-1.3h4.8l-1.5,0.8H112.1z M110.4,35.8c-0.2,0-0.3,0-0.5,0
	c-0.2,0-1.5,0-2.4,0.4c-0.5,0.2-2,0.7-2,2.4c0,1.7,1.6,2.8,4.1,2.8c2.2,0,3.4-1.1,3.4-2.5C113,37.6,112.2,37,110.4,35.8z
	 M111.1,31.3c0.5-0.5,0.6-1.3,0.6-1.7c0-1.7-1-4.3-2.9-4.3c-0.6,0-1.3,0.3-1.6,0.8c-0.4,0.5-0.5,1.1-0.5,1.7c0,1.6,0.9,4.1,2.9,4.1
	C110.1,32,110.7,31.7,111.1,31.3z M97.4,35.4c-3.7,0-5.7-2.9-5.7-5.5c0-3,2.5-5.6,6-5.6c3.4,0,5.6,2.7,5.6,5.5
	C103.3,32.5,101.2,35.4,97.4,35.4z M100.3,33.5c0.6-0.7,0.7-1.7,0.7-2.6c0-2-1-6-3.9-6c-0.8,0-1.5,0.3-2.1,0.8
	c-0.9,0.8-1.1,1.8-1.1,2.8c0,2.3,1.1,6.1,4,6.1C98.9,34.7,99.8,34.2,100.3,33.5z M84.8,35.4c-3.7,0-5.7-2.9-5.7-5.5
	c0-3,2.5-5.6,6-5.6c3.4,0,5.6,2.7,5.6,5.5C90.7,32.5,88.6,35.4,84.8,35.4z M87.7,33.5c0.6-0.7,0.7-1.7,0.7-2.6c0-2-1-6-3.9-6
	c-0.8,0-1.5,0.3-2.1,0.8c-0.9,0.8-1.1,1.8-1.1,2.8c0,2.3,1.1,6.1,4,6.1C86.3,34.7,87.2,34.2,87.7,33.5z M77.4,35L74,35.8
	c-1.4,0.2-2.6,0.4-3.9,0.4c-6.5,0-8.9-4.7-8.9-8.5c0-4.5,3.5-8.7,9.4-8.7c1.3,0,2.5,0.2,3.6,0.5c1.8,0.5,2.6,1.1,3.1,1.4l-1.9,1.8
	L74.6,23l0.6-0.9c-0.8-0.8-2.2-2.2-5-2.2c-3.7,0-6.5,2.8-6.5,6.9c0,4.4,3.2,8.5,8.3,8.5c1.5,0,2.3-0.3,3-0.6v-3.8l-3.5,0.2l1.9-1h5
	l-0.6,0.6c-0.2,0.1-0.2,0.2-0.2,0.4c0,0.2,0,0.9,0,1.1V35z M119.5,34.3c-0.8-0.1-0.9-0.2-0.9-1.1V33V20c0-0.1,0-0.1,0-0.2
	c0.1-0.8,0.3-1,1.1-1.4h-3.3l-1.8,0.8h1.8v0l0,0V33v0.8c0,0.5-0.1,0.5-0.6,1.2h4.1l0.9-0.5C120.3,34.4,119.9,34.4,119.5,34.3z
	 M129,34.6c-0.3,0.1-0.5,0.3-0.8,0.4c-0.8,0.3-1.6,0.4-2.3,0.4c-0.7,0-1.9,0-3.1-0.9c-1.6-1.2-2.4-3.2-2.4-4.9
	c0-3.6,2.9-5.4,5.3-5.4c0.8,0,1.7,0.2,2.4,0.7c1.2,0.8,1.5,1.8,1.6,2.3l-5.5,2.2l-1.8,0.1c0.6,2.9,2.6,4.7,4.8,4.7
	c1.2,0,2-0.4,2.8-0.8L129,34.6z M126.8,27.6c0.4-0.2,0.7-0.3,0.7-0.6c0-0.9-1-2-2.3-2c-0.9,0-2.7,0.7-2.7,3.2c0,0.4,0,0.8,0.1,1.2
	L126.8,27.6z M131.2,24.4v1.5H131v-1.5h-0.5v-0.2h1.2v0.2H131.2z M133.3,25.9v-1.5h0l-0.5,1.5h-0.1l-0.5-1.5h0v1.5H132v-1.7h0.3
	l0.4,1.4h0l0.4-1.4h0.3v1.7H133.3z" />
  <path class="st4" d="M65.9,14.4h-1.2c0-0.2-0.1-0.6-0.3-1.4h-1.7c-0.2,0.7-0.3,1.2-0.3,1.4h-1.1c0-0.1,0.3-0.9,0.8-2.3
	c0.6-1.5,0.8-2.3,0.8-2.4h1.4c0,0.1,0.3,0.9,0.8,2.4C65.7,13.5,65.9,14.3,65.9,14.4z M64.2,12.4c-0.4-1.2-0.6-1.9-0.6-2h-0.1
	c0,0.1-0.2,0.8-0.6,2H64.2z M70.6,14.4h-0.9c0-0.1-0.3-0.6-1-1.6c-0.7-1-1.1-1.7-1.2-2.1h-0.1c0.1,0.5,0.1,1,0.1,1.4
	c0,0.6,0,1.3,0.1,2.2h-0.9c0-0.7,0.1-1.6,0.1-2.5c0-0.9,0-1.6-0.1-2.3h1.1c0,0.1,0.3,0.6,0.9,1.5c0.6,1,1,1.6,1.1,1.9h0.1
	c-0.1-0.5-0.1-1-0.1-1.5c0-0.7,0-1.3-0.1-2h0.9c0,0.6-0.1,1.4-0.1,2.3C70.5,12.9,70.6,13.7,70.6,14.4z M75.9,11.9
	c0,0.7-0.2,1.3-0.7,1.8c-0.4,0.5-1.1,0.8-1.9,0.8c-0.4,0-0.9,0-1.5,0c0-0.7,0-1.6,0-2.5c0-0.9,0-1.6,0-2.3h0.6c0.1,0,0.3,0,0.5,0
	c0.2,0,0.3,0,0.4,0c0.9,0,1.5,0.2,1.9,0.7C75.7,10.8,75.9,11.3,75.9,11.9z M74.9,12.1c0-0.5-0.1-0.9-0.4-1.2
	c-0.3-0.3-0.7-0.5-1.2-0.5c-0.1,0-0.2,0-0.4,0c0,0.5,0,1,0,1.5c0,0.6,0,1.2,0,1.7c0.2,0,0.3,0,0.5,0c0.5,0,0.9-0.2,1.2-0.5
	C74.7,12.9,74.9,12.5,74.9,12.1z M80.7,14.4h-1.1c-0.3-0.9-0.5-1.4-0.6-1.6c-0.2-0.2-0.4-0.3-0.7-0.3c-0.1,0-0.3,0-0.4,0
	c0,0.6,0,1.2,0,1.9h-1c0-0.7,0-1.6,0-2.5c0-0.9,0-1.6,0-2.3h0.6c0.1,0,0.2,0,0.5,0c0.2,0,0.4,0,0.6,0c1.1,0,1.7,0.4,1.7,1.1
	c0,0.6-0.3,1-1,1.3v0.1c0.2,0.1,0.5,0.3,0.6,0.6C80.1,13,80.4,13.6,80.7,14.4z M79.3,11.1c0-0.5-0.3-0.7-0.9-0.7
	c-0.2,0-0.4,0-0.6,0.1c0,0.4,0,0.9,0,1.5c0.1,0,0.2,0,0.3,0C79,11.9,79.3,11.6,79.3,11.1z M85.9,12c0,0.7-0.2,1.4-0.7,1.8
	c-0.5,0.5-1,0.7-1.7,0.7c-0.6,0-1.2-0.2-1.6-0.7c-0.4-0.4-0.6-1-0.6-1.7c0-0.7,0.2-1.4,0.7-1.8c0.5-0.5,1-0.7,1.7-0.7
	c0.6,0,1.2,0.2,1.6,0.7C85.7,10.7,85.9,11.3,85.9,12z M84.9,12.1c0-0.5-0.1-0.9-0.4-1.2c-0.3-0.3-0.6-0.5-1-0.5
	c-0.4,0-0.7,0.2-0.9,0.5c-0.2,0.3-0.4,0.7-0.4,1.2c0,0.5,0.1,0.9,0.4,1.2c0.3,0.3,0.6,0.5,1,0.5c0.4,0,0.7-0.2,0.9-0.5
	C84.8,13,84.9,12.6,84.9,12.1z M88,14.4h-1c0-0.7,0-1.6,0-2.5c0-0.9,0-1.6,0-2.3h1c0,0.6,0,1.4,0,2.3C87.9,12.9,87.9,13.7,88,14.4z
	 M93.2,11.9c0,0.7-0.2,1.3-0.7,1.8c-0.4,0.5-1.1,0.8-1.9,0.8c-0.4,0-0.9,0-1.5,0c0-0.7,0-1.6,0-2.5c0-0.9,0-1.6,0-2.3h0.6
	c0.1,0,0.3,0,0.5,0c0.2,0,0.3,0,0.4,0c0.9,0,1.5,0.2,1.9,0.7C93,10.8,93.2,11.3,93.2,11.9z M92.2,12.1c0-0.5-0.1-0.9-0.4-1.2
	c-0.3-0.3-0.7-0.5-1.2-0.5c-0.1,0-0.2,0-0.4,0c0,0.5,0,1,0,1.5c0,0.6,0,1.2,0,1.7c0.2,0,0.3,0,0.5,0c0.5,0,0.9-0.2,1.2-0.5
	C92.1,12.9,92.2,12.5,92.2,12.1z M100.2,14.4H99c0-0.2-0.1-0.6-0.3-1.4H97c-0.2,0.7-0.3,1.2-0.3,1.4h-1.1c0-0.1,0.3-0.9,0.8-2.3
	c0.6-1.5,0.8-2.3,0.8-2.4h1.4c0,0.1,0.3,0.9,0.8,2.4C99.9,13.5,100.2,14.3,100.2,14.4z M98.5,12.4c-0.4-1.2-0.6-1.9-0.6-2h-0.1
	c0,0.1-0.2,0.8-0.6,2H98.5z M104.4,11c0,0.6-0.2,1-0.6,1.3c-0.4,0.3-1,0.4-1.6,0.4c-0.1,0-0.2,0-0.2,0c0,0.5,0,1.1,0,1.8h-1
	c0-0.7,0-1.5,0-2.5c0-0.9,0-1.6,0-2.3h0.6c0.1,0,0.3,0,0.5,0c0.3,0,0.5,0,0.7,0c0.5,0,0.8,0.1,1.2,0.3
	C104.3,10.2,104.4,10.5,104.4,11z M103.5,11.1c0-0.5-0.3-0.8-1-0.8c-0.2,0-0.4,0-0.5,0.1c0,0.5,0,1,0,1.6c0.1,0,0.1,0,0.2,0
	C103.1,12,103.5,11.7,103.5,11.1z M108.8,11c0,0.6-0.2,1-0.6,1.3c-0.4,0.3-1,0.4-1.6,0.4c-0.1,0-0.2,0-0.2,0c0,0.5,0,1.1,0,1.8h-1
	c0-0.7,0-1.5,0-2.5c0-0.9,0-1.6,0-2.3h0.6c0.1,0,0.3,0,0.5,0c0.3,0,0.5,0,0.7,0c0.5,0,0.8,0.1,1.2,0.3
	C108.6,10.2,108.8,10.5,108.8,11z M107.8,11.1c0-0.5-0.3-0.8-1-0.8c-0.2,0-0.4,0-0.5,0.1c0,0.5,0,1,0,1.6c0.1,0,0.1,0,0.2,0
	C107.4,12,107.8,11.7,107.8,11.1z M115.9,12c0,0.7-0.2,1.4-0.7,1.8s-1,0.7-1.7,0.7c-0.6,0-1.2-0.2-1.6-0.7c-0.4-0.4-0.6-1-0.6-1.7
	c0-0.7,0.2-1.4,0.7-1.8c0.5-0.5,1-0.7,1.7-0.7c0.6,0,1.2,0.2,1.6,0.7C115.7,10.7,115.9,11.3,115.9,12z M114.9,12.1
	c0-0.5-0.1-0.9-0.4-1.2c-0.3-0.3-0.6-0.5-1-0.5c-0.4,0-0.7,0.2-0.9,0.5c-0.2,0.3-0.4,0.7-0.4,1.2c0,0.5,0.1,0.9,0.4,1.2
	c0.3,0.3,0.6,0.5,1,0.5c0.4,0,0.7-0.2,0.9-0.5C114.8,13,114.9,12.6,114.9,12.1z M120.8,14.4h-0.9c0-0.1-0.3-0.6-1-1.6
	c-0.7-1-1.1-1.7-1.2-2.1h-0.1c0.1,0.5,0.1,1,0.1,1.4c0,0.6,0,1.3,0.1,2.2h-0.9c0-0.7,0.1-1.6,0.1-2.5c0-0.9,0-1.6-0.1-2.3h1.1
	c0,0.1,0.3,0.6,0.9,1.5c0.6,1,1,1.6,1.1,1.9h0.1c-0.1-0.5-0.1-1-0.1-1.5c0-0.7,0-1.3-0.1-2h0.9c0,0.6-0.1,1.4-0.1,2.3
	C120.8,12.9,120.8,13.7,120.8,14.4z" />
</svg>