<?xml version="1.0" encoding="utf-8"?>
<!-- Generator: Adobe Illustrator 21.0.2, SVG Export Plug-In . SVG Version: 6.00 Build 0)  -->
<svg version="1.1" id="Layer_1" xmlns="http://www.w3.org/2000/svg" xmlns:xlink="http://www.w3.org/1999/xlink" x="0px" y="0px" width="196px" height="56.5px" viewBox="0 0 196 56.5" style="enable-background:new 0 0 196 56.5;" xml:space="preserve">
  <style type="text/css">
	.st0{fill:#FFFFFF;}
</style>
  <path d="M196,48.8c0,4.2-3.5,7.6-7.6,7.6H7.6C3.5,56.5,0,53,0,48.8V7.6C0,3.5,3.5,0,7.6,0h180.7c4.2,0,7.6,3.5,7.6,7.6V48.8z" />
  <path class="st0" d="M53.7,37.4c-1,2-1.3,3-2.5,4.7c-1.7,2.5-4,5.6-6.8,5.6c-2.5,0-3.2-1.7-6.6-1.7s-4.2,1.7-6.8,1.7
	c-2.8,0-5-2.8-6.6-5.3c-4.7-7-5.1-15.1-2.2-19.6c2-3.2,5.1-5,8.1-5s5,1.7,7.5,1.7c2.5,0,4-1.7,7.5-1.7c2.7,0,5.5,1.5,7.5,4
	C46,25.4,47,34.9,53.7,37.4z M42.4,15.1c1.3-1.7,2.3-4,1.8-6.3c-2.2,0.2-4.5,1.5-6,3.2c-1.3,1.5-2.3,3.8-2,6.1
	C38.7,18.3,41,16.8,42.4,15.1z M74.2,22.8l-6.6,19.4h3l2-6h6.3l2,6H84l-6.6-19.4H74.2z M75.9,25.9c0.2,0.8,0.5,1.8,0.8,2.7l1.8,5.1
	h-5l1.8-5.1C75.4,27.7,75.6,26.9,75.9,25.9z M92.7,27.7c-2,0-3.7,0.8-4.7,2.2l-0.2-2h-2.7v0.2c0,1.2,0.2,2.5,0.2,4.5v14.9h3v-7
	c0.8,1.2,2.3,1.7,4,1.7s3.3-0.7,4.5-1.8c1.3-1.3,2-3.3,2-5.6c0-2-0.7-3.8-1.7-5.1C95.8,28.4,94.3,27.7,92.7,27.7z M92,30.1
	c2.7,0,3.8,2.5,3.8,4.8c0,3.2-1.5,5-3.8,5c-1.7,0-3-1.2-3.5-2.7c0-0.2-0.2-0.5-0.2-1v-2.3c0-0.2,0-0.5,0.2-0.7v-0.2
	C88.9,31.4,90.4,30.1,92,30.1z M107.8,27.7c-2,0-3.7,0.8-4.7,2.2l-0.2-1.8h-2.7v0.2c0,1.2,0.2,2.5,0.2,4.5v14.9h3v-7
	c0.8,1.2,2.3,1.7,4,1.7c1.7,0,3.3-0.7,4.5-1.8c1.3-1.3,2-3.3,2-5.6c0-2-0.7-3.8-1.7-5.1C111,28.4,109.5,27.7,107.8,27.7z M107,30.1
	c2.7,0,3.8,2.5,3.8,4.8c0,3.2-1.5,5-3.8,5c-1.7,0-3-1.2-3.5-2.7c0-0.2-0.2-0.5-0.2-1v-2.3c0-0.2,0-0.5,0.2-0.7v-0.2
	C104,31.4,105.3,30.1,107,30.1z M131.6,36.7c0,2.7-1.8,5.6-6.8,5.6c-1.8,0-3.8-0.5-5-1.3l-0.2-0.2l0.8-2.5l0.3,0.2
	c1.2,0.8,2.7,1.2,4.2,1.2c2.3,0,3.7-1.2,3.7-3c0-1.7-1-2.7-3.5-3.5c-3.5-1.3-5.1-3-5.1-5.6c0-3.2,2.7-5.3,6.3-5.3
	c2.3,0,3.8,0.7,4.3,1l0.2,0.2l-0.8,2.5l-0.2-0.2c-0.2-0.2-1.5-0.8-3.3-0.8c-2.3,0-3.3,1.3-3.3,2.7c0,1.5,0.8,2.3,3.7,3.5
	C130.2,32.2,131.6,33.9,131.6,36.7z M136.9,28.1h3.5v2.3h-3.5v7.1c0,1.7,0.5,2.3,1.7,2.3c0.7,0,1,0,1.3-0.2l0.3-0.2l0.2,2.3h-0.2
	c-0.3,0.2-1.2,0.3-2.3,0.3c-1.2,0-2.2-0.3-2.8-1.2c-0.7-0.8-1-2-1-3.7v-7.1h-2.2v-2.3h2.2v-2.5l2.8-0.8V28.1z M147.7,27.7
	c-4.2,0-7,3-7,7.5c0,4.3,2.8,7.1,6.8,7.1l0,0c3.3,0,7-2.3,7-7.5c0-2.2-0.7-3.8-1.8-5.1C151.3,28.4,149.7,27.7,147.7,27.7z
	 M147.5,30.1c2.7,0,3.8,2.5,3.8,5c0,3-1.7,5.1-3.8,5.1l0,0c-2.2,0-3.8-2.2-3.8-5C143.7,32.6,144.8,30.1,147.5,30.1z M163.4,30.6
	h-0.3c-0.3,0-0.5,0-0.8,0c-1.5,0-2.8,1.2-3.2,3c0,0.3,0,0.7,0,1.2v7.5h-3v-9.6c0-1.8,0-3-0.2-4.2v-0.2h2.7l0.2,2
	c0.8-1.5,2.2-2.3,3.7-2.3c0.3,0,0.5,0,0.7,0.2h0.2v2.5H163.4z M169.9,27.7c-3.8,0-6.6,3.2-6.6,7.6c0,4.3,2.7,7.1,7,7.1
	c2.2,0,3.8-0.5,4.7-0.8h0.2l-0.5-2.2l-0.2,0.2c-0.8,0.3-1.8,0.7-3.7,0.7c-1.3,0-4.2-0.5-4.3-4.3h9.5v-0.2c0-0.3,0.2-0.7,0.2-1.2
	C175.7,31.2,174.2,27.7,169.9,27.7z M169.8,29.9c0.8,0,1.7,0.3,2.2,0.8c0.8,0.8,1,2.2,1,2.7h-6.6C166.6,31.7,167.6,29.9,169.8,29.9z
	 M67.8,9.5c0.8-0.2,1.8-0.2,2.8-0.2c1.8,0,3.2,0.3,4.2,1.2c1,0.8,1.5,1.8,1.5,3.3s-0.5,2.7-1.5,3.5c-1,0.8-2.5,1.3-4.5,1.3
	c-1,0-1.7,0-2.3-0.2v-9H67.8z M69.1,17.6c0.3,0,0.8,0,1.3,0c2.8,0,4.3-1.5,4.3-3.8c0-2.2-1.3-3.5-4.2-3.5c-0.7,0-1.2,0-1.5,0.2
	C69.1,10.5,69.1,17.6,69.1,17.6z M80.7,18.6c-2,0-3.5-1.3-3.5-3.3c0-2.2,1.7-3.5,3.7-3.5c2.2,0,3.5,1.3,3.5,3.3
	C84.4,17.6,82.6,18.6,80.7,18.6L80.7,18.6z M80.9,17.8c1.3,0,2.2-1,2.2-2.5c0-1.2-0.7-2.5-2.2-2.5c-1.5,0-2.2,1.3-2.2,2.5
	C78.6,16.6,79.6,17.8,80.9,17.8L80.9,17.8z M86.5,12l1,3.3c0.2,0.7,0.3,1.5,0.5,2.2l0,0c0.2-0.7,0.3-1.3,0.7-2.2l1.2-3.3H91l1.2,3.3
	c0.3,0.8,0.5,1.5,0.7,2.2l0,0c0.2-0.7,0.3-1.3,0.5-2.2l1-3.3h1.3l-2.3,6.6h-1.2L91,15.4c-0.3-0.8-0.5-1.3-0.7-2.2l0,0
	c-0.2,0.8-0.3,1.5-0.7,2.2l-1.2,3.2h-1.2L85.2,12H86.5z M97.2,13.8c0-0.7,0-1.2,0-1.8h1.2v1l0,0c0.3-0.7,1.2-1.2,2.5-1.2
	c1,0,2.7,0.5,2.7,2.8v4h-1.3v-3.8c0-1-0.5-2-1.7-2c-0.8,0-1.5,0.5-1.8,1.2c0,0.2-0.2,0.3-0.2,0.5v4h-1.3
	C97.2,18.4,97.2,13.8,97.2,13.8z M105.5,8.8h1.3v9.6h-1.3C105.5,18.4,105.5,8.8,105.5,8.8z M112,18.6c-2,0-3.5-1.3-3.5-3.3
	c0-2.2,1.7-3.5,3.7-3.5c2.2,0,3.5,1.3,3.5,3.3C115.6,17.6,113.8,18.6,112,18.6L112,18.6z M112.1,17.8c1.3,0,2.2-1,2.2-2.5
	c0-1.2-0.7-2.5-2.2-2.5s-2.2,1.3-2.2,2.5C109.8,16.6,110.8,17.8,112.1,17.8L112.1,17.8z M122.4,16.9c0,0.5,0,1.2,0.2,1.5h-1.2
	l-0.2-0.8l0,0c-0.3,0.5-1.2,1-2.2,1c-1.5,0-2.2-1-2.2-1.8c0-1.7,1.5-2.5,4.3-2.5v-0.2c0-0.5-0.2-1.5-1.7-1.5c-0.7,0-1.3,0.2-2,0.5
	l-0.3-0.8c0.7-0.3,1.5-0.5,2.5-0.5c2.3,0,2.8,1.3,2.8,2.7v2.5H122.4z M121.3,15.1c-1.5,0-3.2,0.2-3.2,1.5c0,0.8,0.5,1.2,1.2,1.2
	c1,0,1.7-0.5,1.8-1.2c0-0.2,0-0.3,0-0.3v-1.2H121.3z M130.9,8.8v8c0,0.7,0,1.3,0,1.7h-1.2v-1.2l0,0c-0.3,0.7-1.3,1.3-2.5,1.3
	c-1.8,0-3.2-1.3-3.2-3.3c0-2.2,1.5-3.5,3.3-3.5c1.2,0,1.8,0.5,2.2,1l0,0v-4H130.9z M129.6,14.6c0-0.2,0-0.3,0-0.5
	c-0.2-0.8-1-1.3-2-1.3c-1.3,0-2.2,1.2-2.2,2.5s0.7,2.5,2.2,2.5c0.8,0,1.7-0.5,2-1.5c0-0.2,0-0.3,0-0.5V14.6z M139.4,18.6
	c-2,0-3.5-1.3-3.5-3.3c0-2.2,1.7-3.5,3.7-3.5c2.2,0,3.5,1.3,3.5,3.3C143,17.6,141,18.6,139.4,18.6L139.4,18.6z M139.4,17.8
	c1.3,0,2.2-1,2.2-2.5c0-1.2-0.7-2.5-2.2-2.5s-2.2,1.3-2.2,2.5C137.2,16.6,138,17.8,139.4,17.8L139.4,17.8z M144.7,13.8
	c0-0.7,0-1.2,0-1.8h1.2v1l0,0c0.3-0.7,1.2-1.2,2.5-1.2c1,0,2.7,0.5,2.7,2.8v4h-1.5v-3.8c0-1-0.5-2-1.7-2c-0.8,0-1.5,0.5-1.8,1.2
	c0,0.2-0.2,0.3-0.2,0.5v4h-1.3v-4.7H144.7z M157.8,10.3v1.5h1.8v0.8h-1.8v3.5c0,0.8,0.3,1.3,1,1.3c0.3,0,0.5,0,0.8,0v0.8
	c-0.3,0-0.7,0.2-1.2,0.2c-0.7,0-1.2-0.2-1.5-0.5c-0.3-0.3-0.5-1-0.5-1.7v-3.5h-1.2V12h1.2v-1.2L157.8,10.3z M161.3,8.8h1.3V13l0,0
	c0.2-0.3,0.5-0.7,1-0.8c0.3-0.2,0.8-0.3,1.3-0.3c1,0,2.5,0.5,2.5,2.8v4h-1.3v-3.8c0-1-0.5-2-1.7-2c-0.8,0-1.5,0.5-1.8,1.2
	c0,0.2-0.2,0.3-0.2,0.5v4h-1.3V8.8H161.3z M170.4,15.4c0,1.7,1.2,2.3,2.5,2.3c1,0,1.5-0.2,2-0.3l0.2,0.8c-0.5,0.2-1.3,0.5-2.5,0.5
	c-2.2,0-3.7-1.3-3.7-3.3s1.3-3.5,3.5-3.5c2.3,0,3,1.8,3,3.2c0,0.2,0,0.5,0,0.5L170.4,15.4z M174.2,14.6c0-0.8-0.3-2-1.8-2
	c-1.3,0-2,1.2-2,2H174.2z" />
</svg>