<?xml version="1.0" encoding="UTF-8" standalone="no"?>
<!DOCTYPE svg PUBLIC "-//W3C//DTD SVG 1.1//EN" "http://www.w3.org/Graphics/SVG/1.1/DTD/svg11.dtd"[]>
<svg version="1.1" xmlns="http://www.w3.org/2000/svg" xmlns:xlink="http://www.w3.org/1999/xlink" preserveAspectRatio="xMidYMid meet" viewBox="0 0 640 479" width="640" height="479">
  <defs>
    <path d="M426.35 71.04C414.67 72.88 321.25 87.52 309.57 89.35C308.21 89.56 306.95 90.04 305.85 90.73C296.69 88.77 223.37 73.11 214.21 71.15C210.86 70.4 207.34 71.49 204.94 73.96C192.94 86.35 96.88 185.46 84.87 197.85C76.18 206.83 73.34 219.74 77.47 231.55C79.2 236.49 93.03 276.02 94.76 280.96C97.83 289.75 103.1 297.7 109.98 303.97C111.66 305.5 125.06 317.71 126.74 319.24C123.96 325.94 117.45 344.82 122.38 365.07C135.29 418.05 168.31 450.44 226.29 467.01C237.62 470.25 249.53 471.31 260.25 471.31C274.06 471.31 285.76 469.57 291.69 468.5C300.98 474.78 311.77 478.24 322.88 478.24C327.65 478.24 332.45 477.64 337.2 476.4C402.28 459.15 445.08 416.9 464.64 350.93C466.98 350.54 469.23 349.54 470.84 347.55C475.96 341.17 516.94 290.1 522.06 283.72C522.87 282.7 523.64 281.67 524.38 280.61C527.47 276.16 552.18 240.54 555.27 236.08C564.2 223.23 562.77 205.74 551.89 194.48C544.1 186.45 505.16 146.28 435.08 73.96C431.41 71.72 428.5 70.75 426.35 71.04ZM141.82 360.34C139.4 350.43 141.02 340.66 142.87 333.93C155.71 345.63 258.42 439.19 271.26 450.89C259.76 451.71 245.05 451.58 231.79 447.78C180.75 433.19 153 406.22 141.82 360.34ZM437.87 366.71C427.61 357.59 345.52 284.62 335.25 275.5C331.12 271.81 324.81 272.18 321.14 276.33C317.47 280.45 317.84 286.78 321.97 290.44C332.47 299.77 416.46 374.43 426.95 383.76C427.56 384.3 428.28 384.61 428.97 384.98C423.75 394.22 417.81 402.65 411.13 410.27C400.05 400.29 311.39 320.51 300.31 310.54C296.21 306.85 289.89 307.18 286.19 311.28C282.5 315.38 282.83 321.71 286.93 325.4C297.93 335.29 385.88 414.45 396.88 424.34C389.36 430.76 381.14 436.44 372.17 441.34C371.65 440.43 371.08 439.53 370.25 438.8C359.76 429.47 275.77 354.82 265.27 345.49C261.14 341.81 254.83 342.18 251.16 346.32C247.49 350.44 247.86 356.77 251.99 360.43C262.1 369.41 342.93 441.26 353.03 450.24C346.38 452.83 339.42 455.11 332.11 457.05C320.21 460.19 307.74 457.08 298.67 448.81C281.15 432.85 140.97 305.15 123.45 289.19C119.01 285.15 115.62 280.02 113.64 274.35C111.91 269.41 98.08 229.89 96.35 224.95C94.73 220.33 95.84 215.27 99.24 211.77C106.99 203.77 145.72 163.81 215.45 91.86C281.74 106.02 318.56 113.89 325.93 115.46C332.66 116.89 338.83 120.19 343.78 124.99C347.22 128.32 374.72 154.98 378.16 158.31C384.86 164.81 388.21 173.87 387.35 183.16C386.5 192.44 381.55 200.73 373.78 205.9C372.93 206.46 366.11 211 365.25 211.56C338.71 187.76 317.52 168.81 317.52 168.81C313.41 165.14 307.13 165.46 303.44 169.55C299.75 173.62 300.04 179.91 304.09 183.63C309.37 188.47 351.58 227.18 356.86 232.02C357.93 233 359.17 233.71 360.49 234.15C387.07 257.99 417.1 284.94 436.27 302.27C446.7 311.6 450.9 325.79 447.23 339.33C444.62 349.06 441.47 358.14 437.87 366.71ZM507.94 269.22C507.45 269.93 506.93 270.61 506.43 271.25C502.54 276.09 471.47 314.8 467.59 319.64C465.41 307.42 459.3 296.04 449.65 287.4C432.09 271.54 405.43 247.59 380.64 225.35C381.06 225.07 384.42 222.85 384.84 222.57C397.7 214.02 405.87 200.32 407.28 184.99C408.69 169.64 403.16 154.69 392.08 143.95C388.64 140.62 361.13 113.96 357.7 110.62C354.87 107.89 351.72 105.58 348.43 103.51C353.49 102.71 378.79 98.75 424.33 91.61C492.24 161.68 529.97 200.61 537.52 208.4C541.78 212.8 542.33 219.65 538.85 224.68C532.67 233.59 511.03 264.76 507.94 269.22Z" id="e1rPAno3er"></path>
    <path d="M147 3.8C145.13 1.92 142.58 0.87 139.93 0.87C139.92 0.87 139.92 0.87 139.92 0.87C137.28 0.87 134.73 1.92 132.85 3.79C120.06 16.56 17.74 118.74 4.95 131.51C1.05 135.42 1.05 141.75 4.94 145.66C9.75 150.48 48.21 188.99 53.02 193.81C54.89 195.68 57.44 196.74 60.09 196.74C60.1 196.74 60.1 196.74 60.1 196.74C62.75 196.74 65.29 195.68 67.17 193.82C79.96 181.05 182.28 78.87 195.07 66.09C198.98 62.19 198.98 55.86 195.08 51.94C185.46 42.31 151.81 8.61 147 3.8ZM26.16 138.6L139.91 25.01L173.86 59L60.11 172.6L26.16 138.6Z" id="eanwfqrzZ"></path>
    <path d="M507.17 3.79C505.29 1.92 502.75 0.87 500.1 0.87C500.1 0.87 500.09 0.87 500.09 0.87C497.44 0.87 494.89 1.92 493.02 3.8C488.21 8.61 449.75 47.13 444.94 51.94C441.05 55.86 441.05 62.19 444.95 66.09C457.74 78.87 560.06 181.05 572.85 193.82C574.73 195.68 577.28 196.74 579.92 196.74C579.92 196.74 579.93 196.74 579.93 196.74C582.58 196.74 585.13 195.68 587 193.81C591.81 188.99 630.27 150.48 635.08 145.66C638.98 141.75 638.98 135.42 635.07 131.51C609.49 105.97 519.96 16.56 507.17 3.79ZM466.16 59L500.11 25.01L613.86 138.6L579.91 172.6L466.16 59Z" id="aANm4Mg6Z"></path>
  </defs>
  <g>
    <g>
      <g>
        <use xlink:href="#e1rPAno3er" opacity="1" fill="#ffffff" fill-opacity="1"></use>
        <g>
          <use xlink:href="#e1rPAno3er" opacity="1" fill-opacity="0" stroke="#000000" stroke-width="1" stroke-opacity="0"></use>
        </g>
      </g>
      <g>
        <use xlink:href="#eanwfqrzZ" opacity="1" fill="#ffffff" fill-opacity="1"></use>
        <g>
          <use xlink:href="#eanwfqrzZ" opacity="1" fill-opacity="0" stroke="#000000" stroke-width="1" stroke-opacity="0"></use>
        </g>
      </g>
      <g>
        <use xlink:href="#aANm4Mg6Z" opacity="1" fill="#ffffff" fill-opacity="1"></use>
        <g>
          <use xlink:href="#aANm4Mg6Z" opacity="1" fill-opacity="0" stroke="#000000" stroke-width="1" stroke-opacity="0"></use>
        </g>
      </g>
    </g>
  </g>
</svg>