<?xml version="1.0" encoding="UTF-8" standalone="no"?>
<!DOCTYPE svg PUBLIC "-//W3C//DTD SVG 1.1//EN" "http://www.w3.org/Graphics/SVG/1.1/DTD/svg11.dtd"[]>
<svg version="1.1" xmlns="http://www.w3.org/2000/svg" xmlns:xlink="http://www.w3.org/1999/xlink" preserveAspectRatio="xMidYMid meet" viewBox="0 0 640 640" width="640" height="640">
  <defs>
    <path d="M284.85 60.86C231.51 114.19 212.14 191.03 231.01 261.84C208.52 284.33 28.59 464.26 6.1 486.75C2.2 490.66 0 495.95 0 501.47C0 513.24 0 607.42 0 619.19C0 630.68 9.32 640 20.81 640C32.58 640 126.76 640 138.53 640C144.05 640 149.34 637.81 153.25 633.9C156.19 630.96 179.73 607.42 182.68 604.47C186.58 600.57 188.77 595.28 188.77 589.76C188.77 587.22 188.77 574.54 188.77 551.71C211.6 551.71 224.28 551.71 226.82 551.71C232.34 551.71 237.63 549.52 241.54 545.62C244.48 542.67 268.02 519.13 270.97 516.18C274.87 512.28 277.06 506.99 277.06 501.47C277.06 498.93 277.06 486.25 277.06 463.42C299.89 463.42 312.57 463.42 315.11 463.42C320.63 463.42 325.92 461.23 329.83 457.32C334.66 452.49 373.32 413.83 378.16 408.99C448.97 427.87 525.81 408.49 579.14 355.16C660.28 274.02 660.28 142 579.14 60.86C498.01 -20.28 365.98 -20.28 284.85 60.86ZM378.84 365.76C371.36 363.25 363.1 365.19 357.52 370.78C354.11 374.18 337.11 391.18 306.5 421.8C276.35 421.8 259.6 421.8 256.26 421.8C244.76 421.8 235.45 431.11 235.45 442.61C235.45 445.96 235.45 462.7 235.45 492.85L218.2 510.09C188.06 510.09 171.31 510.09 167.96 510.09C156.47 510.09 147.15 519.41 147.15 530.9C147.15 534.25 147.15 550.99 147.15 581.14L129.92 598.38L41.62 598.38L41.62 510.09C178.18 373.53 254.05 297.66 269.22 282.49C274.81 276.91 276.75 268.65 274.24 261.16C253.99 200.7 269.33 135.23 314.27 90.28C379.19 25.37 484.8 25.37 549.72 90.28C614.63 155.2 614.63 260.82 549.72 325.73C504.77 370.67 439.3 386.01 378.84 365.76Z" id="loVrNXzAx"></path>
    <path d="M402.56 119.72C370.11 152.17 370.11 204.98 402.56 237.44C435.02 269.89 487.83 269.9 520.29 237.44C552.74 204.98 552.74 152.17 520.29 119.72C487.83 87.26 435.02 87.26 402.56 119.72ZM432 208.01C415.77 191.78 415.77 165.37 432 149.15C448.22 132.92 474.63 132.92 490.86 149.15C507.08 165.37 507.08 191.78 490.86 208.01C474.63 224.23 448.22 224.23 432 208.01Z" id="b3A8FCEPej"></path>
  </defs>
  <g>
    <g>
      <g>
        <use xlink:href="#loVrNXzAx" opacity="1" fill="#ff8200" fill-opacity="1"></use>
        <g>
          <use xlink:href="#loVrNXzAx" opacity="1" fill-opacity="0" stroke="#000000" stroke-width="1" stroke-opacity="0"></use>
        </g>
      </g>
      <g>
        <use xlink:href="#b3A8FCEPej" opacity="1" fill="#ff8200" fill-opacity="1"></use>
        <g>
          <use xlink:href="#b3A8FCEPej" opacity="1" fill-opacity="0" stroke="#000000" stroke-width="1" stroke-opacity="0"></use>
        </g>
      </g>
    </g>
  </g>
</svg>