<?xml version="1.0" encoding="utf-8"?>
<!-- Generator: Adobe Illustrator 24.1.2, SVG Export Plug-In . SVG Version: 6.00 Build 0)  -->
<svg version="1.1" id="Layer_1" xmlns="http://www.w3.org/2000/svg" xmlns:xlink="http://www.w3.org/1999/xlink" x="0px" y="0px"
	 viewBox="0 0 252.7 273.7" style="enable-background:new 0 0 252.7 273.7;" xml:space="preserve">
<style type="text/css">
	.st0{fill:#FFFFFF;}
</style>
<g>
	<path class="st0" d="M133.4,60.5c0,0-6.8,5.5-8.5,10.9c-1.7,5.4-2.2,7.3,0.9,15.6c3.1,8.4,14.9,41.7,14.9,41.7s3.6,7.8-3,12.9
		c0,0-4.3,3.1-3.2,2.8c1.1-0.3,14.4-3.3,10.1-15.4c-2-5.6-16.6-46.4-16.6-46.4s-4.3-10.3,6.1-20.3L133.4,60.5z"/>
	<path class="st0" d="M147.2,136.7c0,0,5.6-4.8,3.7-11.2c-1.9-6.5-16.3-47.3-16.3-47.3s-4.5-9.4-0.4-16.9c0,0-5.2,4.2-4.5,10.8
		c0.7,6.7,4.5,15.2,6.5,20.7c1.9,5.5,11.4,33.2,11.4,33.2s1.5,5.4,0.6,7.7C147.3,136.1,146.5,137.5,147.2,136.7"/>
	<path class="st0" d="M125.5,83.5c0,0-3.3,4.5,0,13.5c3.2,8.9,11.3,32.1,11.3,32.1s4,8.9-0.6,14.2l-1.4,0.8c0,0,2.6-3.8,0.8-9.3
		c-1.8-5.6-12.3-33.2-12.3-33.2s-3.3-8.5-1.2-14.4L125.5,83.5z"/>
	<path class="st0" d="M141.5,146.7l0.1-1.2c0,0-0.5-0.7-0.9-0.3c-0.4,0.3-1.4,1.5-1,2.8c0.3,0.9,1.2,0.8,1.2,0.8l-0.4,0.6l0,0.9
		c0,0,0.4-0.2,1.1-1.1c0.8-0.9,1.9-1.8,1.9-1.8l0.1-1.2c0,0-1.2,1.2-1.7,1.4c-0.5,0.3-1.5,0.3-1.7,0c-0.2-0.3,0.4-1.1,0.8-1
		C141.3,146.6,141.5,146.7,141.5,146.7"/>
	<polygon class="st0" points="157.1,144.4 156.5,148.3 160.2,148.7 160.8,144.9 	"/>
	<polygon class="st0" points="152.9,147.7 152.3,151.6 156,152 156.6,148.2 	"/>
	<polygon class="st0" points="148.7,150.9 148.1,154.7 151.8,155.2 152.4,151.3 	"/>
	<path class="st0" d="M160,215.6c0,0-6.1-4.6-5.5-26.8l1.7,0.2c0,0-2,16.4,3.4,24.7L160,215.6z"/>
	<path class="st0" d="M163.6,149.3c0,0,0.2-1.4-5.8-16.9c-1.3-3.5-25.1-71.4-25.1-71.4s-3.2-7.4,4.7-16.9c1.3-1.6,6.7-7.2,8.9-8.2
		l0.3,2.3c0,0-12.4,8.1-10.7,18.7c1,6.6,2.7,10.2,2.7,10.2l24.6,70.3c0,0,3.3,7.9,2,14.4c-0.5,4.2-4.5,4.7-4.5,4.7s0.8,4.6-4,5
		c0,0-0.6,4.2-4.4,3.7c0,0-0.1,4.2-5.1,5c-5,0.8-7.5-4.6-9.5-9.5c-1.9-4.9-20-53.7-20-53.7s-6.9-14.7,7.2-25.2l0.3,2.5
		c0,0-6.2,6.1-6.2,10.6c-0.1,4.5,0.7,7.6,2,11.2c1.3,3.6,20.1,54.5,20.1,54.5s2,6,6.5,4.5c4.5-1.5,3.3-7.2,3.5-7.8
		c0.1-0.6,0.7-0.2,0.8,0.5c0.2,0.7,0.3,2.6,0.3,2.6s3.3,0.1,3.4-3.6c0-3.8,0.3-3.5,0.6-2.9c0.3,0.6,0.5,2.8,0.5,2.8s3.4,0.4,3-3.6
		c-0.3-3.4,0.2-3,0.3-3c0.1,0.1,0.5,1.5,0.5,1.5S162.7,152,163.6,149.3"/>
	<path class="st0" d="M117.3,162c-1.9-2.6-2-5.2-2-5.2c-0.1-8,1.2-10.9,1.2-10.9s4,5.4,4,7.7C120.7,156.9,117.3,162,117.3,162
		 M156.8,136.9c0.2-3-1.2-7-1.7-7c-0.5,0-0.1,1.6-0.1,1.6c0.3,2-0.1,3.2-0.9,4.5c-0.7,1.3-1,0.4-1,0.4s-0.2-3.3-1-2.4
		c-0.8,0.9,0.2,3.7,0.2,4.4c0,0.7,0.1,2.6-1.7,3.5c-1.8,0.9-2.5-1.8-2.6-2.4c-0.1-0.5-0.1-1.2-0.8-1.3c-0.7-0.1-1.6,3.3-1.5,5.6
		c0.1,2.3-0.4,6.6-3,9.8c-2.6,3.2-8.4,4.6-12.3-2.1c-3.9-6.6-7.9-18.4-8.1-19.2c-0.2-0.8-0.4-0.7-0.7-0.5c-0.3,0.2-0.2,2.2-0.2,3.4
		c0,1.1,0,2.7,0,2.7s5.6,13.8,6.3,16.2c0.7,2.4,0,4.6,0,4.6c-2.2,6.5-7.7,5.1-7.7,5.1c1.1-2.1,2.1-6.7,1.9-10.9
		c-0.2-4.2-4-11-4.4-11.8c-0.3-0.8-0.5-1.9-0.9-2.1c-0.4-0.2-0.6,0.5-0.8,2c-0.2,1.4-1.5,4.6-2.2,12.5c-0.7,7.8,2.1,11.2,2.1,11.2
		c-1.4,2.3-3.9,4.5-5.4,5.8c-1.5,1.4-0.6,1.1-0.6,1.1c5.5-1.8,7.7-4.7,7.7-4.7c2.6,2.2,6.9,2.6,9.7-1.6c2.8-4.2,1.7-12,1.7-12
		s4.2,9.3,11.1,7.2c8.9-2,7.7-14.4,7.7-15.6c0.1-1.2,0.4-1.3,0.4-1.3c0.4,1.2,1.5,3.4,3.8,2.9c2.3-0.6,2.3-4.9,2.3-4.9
		C155.6,141,156.6,139.9,156.8,136.9"/>
	<path class="st0" d="M73.5,191.2c0,0,0-0.5,0.5-0.5c0.4,0,0.4,0.5,0.5,1.2c0.1,0.7,1.2,9.8,8.4,13.3c0,0,3.1,1.5,4.5-0.5
		c1.5-2,1.5-4.9,1.7-6c0.1-1.1,0.3-5.9,3-9.3c2.7-3.3,4.6-2.2,4.7-1.9c0,0.3,1.3,4.6,5.2,5.9c4,1.2,13,1.2,18.4-10
		c0.3-0.7,0.8-1.6,0-2c-0.8-0.4-1.5-0.4-1.5-0.4s0.4,1.3-0.4,2.2c-0.8,0.8-3.7,2.5-5.4-0.3c0,0-0.7-1.5-0.6-4.1
		c0.1-2.5,1.8-4.8,3.5-4.5c1.7,0.2,5.6,1.4,6,7.2c0.4,5.9-4.2,13-9.9,15.8c-5.7,2.8-12.2,1.7-15.2-2.6c0,0-1-1.9-1.1-2.5
		c0,0-0.1-0.6-1.1,0.3c-1,0.9-3.2,2.2-3.9,6.8c-0.7,4.6-0.6,10.4-5.7,10c-5.1-0.5-9.5-8-10.9-13.3C74.4,195.9,73.4,193.1,73.5,191.2
		"/>
	<path class="st0" d="M108,203.2c0,0-0.1-0.3,0.5-0.4c0.6-0.2,10.7-2.4,16.1-13.1c2.1-4.1,3.3-11.3,3.6-16c0.4-4.7,1.2-8.4,3.8-9.1
		c0,0,0.6-0.2,1.1,1.7c0.5,1.9,1.3,4,1.1,4.2c-0.2,0.2-0.7-0.5-1.3-1c-0.6-0.5-2.2,2.4-2.5,4.1c-0.3,1.9-0.1,14.1-3.2,20
		C124.1,199.5,117.1,202.8,108,203.2"/>
	<path class="st0" d="M138.1,188.3c0,0,0.2,2.1-1.6,3c-1.9,0.9-3.8-0.1-4.1-1.6c-0.2-1.5-1.2-5.6,0.5-7.1c1.8-1.5,5.1-1.8,7.1,1.6
		c1.9,3.1,0.3,10.1-1.2,12.5c-1.5,2.4-8.2,12.9-26.2,14.7c-4.3,0.4-15.1-2.3-13.6-12.8c0.6-3.9,2.1-7.8,4-10.4c0,0,0.7-0.3,0.5,0.3
		c-0.2,0.6-4.4,8.6-1.3,13.2c3.1,4.6,9.7,7.4,22.2,1.9c12.5-5.5,15.3-13.8,15.1-14.4C139.5,188.8,138.1,188.3,138.1,188.3"/>
	<path class="st0" d="M103.7,163.2c2.1-1.8,5.3-4.7,6.2-7.9c0.8-3.2,0.5-5.7-0.8-6.1c-1.3-0.4-4.3,2.3-5.2,3.2
		c-0.8,0.9,0.1,5.6,0.1,5.6s-1.5,1.1-2.3,1.9c-0.9,0.8-3.9,3.1-5,6.1c-1.1,3-0.1,5.3,0.9,6.3c1.1,1,4.1-0.2,5.5-0.5
		c1.4-0.3,1.8,0.4,1.8,0.4s-4.7,6.5-15.6,8.7c-7.2,1.4-20.7,4.3-35.9-4.6c0,0,7.8,13.9,34.4,9.4c11.9-2,17.2-8.8,17.9-10.4
		c0.8-1.8,1.7-5.3,0.6-7c-1.1-1.8-3.5-1.5-5.3-0.8c-1.8,0.6-2.2,0.1-2.2,0.1C98.6,166.7,101.6,165.1,103.7,163.2"/>
	<polygon class="st0" points="100.7,182 105.3,184.6 103.5,188.3 98.8,185.9 	"/>
	<polygon class="st0" points="107.3,180.5 111.9,183.1 110.1,186.9 105.4,184.5 	"/>
	<polygon class="st0" points="135,173.4 139.5,176 137.7,179.8 133,177.4 	"/>
	<path class="st0" d="M149.4,198c0,0,0.1-1.7,0.8-1.6c0.7,0.1-0.4,3.2,0.1,8.2c0.5,4.9,0.6,18.2,18.2,26.3c0,0,4.4,2.7,18.5,5.9
		c0,0,1,0,0.3,0.5c-0.7,0.5-13,0.9-22-2.2c-8.9-3.1-16.2-12.1-16.6-23.7C148.6,210.2,148.3,206.5,149.4,198"/>
	<path class="st0" d="M199,182.4c-5.5-12-16.3-21.3-23.7-27.6c0,2.9,0.9,5.2,5.3,9.3c4.5,3.8,13.8,14.6,16.5,20.6
		c0.3,1,0.6,3.7,0.2,4.5c-0.3-0.4-0.4-6.5-8.8-4.5c5.3,1.3,8.4,6.9,9.5,10.4C199.3,191.8,199.5,185.2,199,182.4"/>
	<path class="st0" d="M164.3,195.4c-2.4,2.3-4.6,5.2-6.5,10.8c-2.2,6.4,3,10.8,3.1,10.2c0.8-17.7,17.4-25.7,25.5-22.6
		c2.1,0.8,6.3,2.3,3,6.9c0,0,5.7,3.2,8.3-3.5C198.8,195.6,182,181.2,164.3,195.4"/>
	<path class="st0" d="M146.3,35.9l0.4,2.4c0,0-5.3,4-4.4,12c0,0,0.1,3.2,1.8,8.2c1.7,5.1,26.1,75.2,26.1,75.2s4.2,11.4,1.8,19.4
		c-1.5,5.1-2.3,8.5-9,15.2c-6.7,6.7-19.4,8.2-19.4,8.2s-4.7,0.9-2.1-0.2c2.6-1,26.6-10.6,29.3-27.5c0.2-1-0.6-4.1-0.9-5.2
		c-0.3-1.1-30.3-86.5-30.3-86.5S134.7,44.5,146.3,35.9"/>
	<path class="st0" d="M174.5,171.6c-0.7-0.3-1-0.8-1-1.4c0-0.5-0.3-0.3-0.3-0.3c-1,0.8-1.1,2.1-1.1,2.4c0,1.2,0.2,1.8,0.2,1.8
		s-1.1,1.2-2,2.3c-0.8,1-3.9,6-5.3,7.8c0.7-2,1.1-4.3,1.1-6.7c0-1,0-2.1-0.1-3.2l0-0.3c-0.1-0.5-0.2-0.8-0.5-1.1
		c-0.4-0.3-0.9-0.3-0.9-0.3c-5.6,0.6-9.1,5.3-9.9,13.3l0,0.3c0,0.3-0.1,0.9-0.2,1.7l0,0.5c-0.2,0-0.3,0-0.5-0.1
		c-1.2-0.4-1.6-1.2-1.8-1.7l0-0.1c-0.3-0.5-0.7-3.2-0.7-4.3c0-0.1,0-0.2,0-0.3c0,0,0-0.1,0-0.1c-0.1,0-0.2,0.1-0.2,0.1l0,0h0
		c-4.6,2.2-5.8,5.4-6,6.4c-0.3,1-0.3,2.7-0.4,4.2l-0.1,1.8c-0.4,4.7-1.8,8.4-4.3,11.2c-4.4,5-14,7.8-17.2,8.7c1.5,0,12.4,0.1,18-3.9
		c4.8-3.5,4.7-11.2,4.7-15.2v-1.9c0.1-3.5,4.1-5.5,4.3-5.6l0.3-0.2l0,0.4c0,0,0.3,3.8,2.6,5.1c0.2,0.1,0.3,0.2,0.7,0.3
		c0.1,0,0.5,0.1,0.5,0.1c0.9,0.1,1.6,0,2-0.1c5.5-1.2,9.1-4.5,11.9-9.1c2.9-4.7,4-5.1,5.9-5.6c1.8-0.5,2.9,0.7,3.5,0.6
		c0.6-0.2,1-4,1-4.9C178.8,173.2,175.8,172,174.5,171.6 M159.1,180.9c3.2-3.6,5.3-3.4,5.4-3.4l0.2,0.1l0,0.2v0.3
		c0,2-2.5,6.4-6.6,9.1c-0.4,0.3-0.8,0.5-1.2,0.7c0,0-0.2,0.1-0.6,0.3l0.1-0.6C157,184.6,157.9,182.3,159.1,180.9"/>
</g>
</svg>
